<svg width="17" height="17" viewBox="0 0 17 17" fill="none" xmlns="http://www.w3.org/2000/svg">
<path d="M14.3333 3.39588L1.59416 16.135C1.43258 16.2966 1.22958 16.3792 0.985162 16.3829C0.740551 16.3866 0.533759 16.304 0.364787 16.135C0.195814 15.966 0.111328 15.7612 0.111328 15.5205C0.111328 15.2795 0.195814 15.0746 0.364787 14.9056L13.1039 2.1665H5.87495C5.62704 2.1665 5.41918 2.0826 5.25137 1.9148C5.08376 1.74699 4.99995 1.53913 4.99995 1.29121C4.99995 1.0431 5.08376 0.835337 5.25137 0.66792C5.41918 0.500309 5.62704 0.416504 5.87495 0.416504H15.0286C15.3275 0.416504 15.5779 0.517616 15.78 0.719838C15.9822 0.921866 16.0833 1.17231 16.0833 1.47117V10.6248C16.0833 10.8728 15.9994 11.0806 15.8316 11.2484C15.6638 11.416 15.4559 11.4998 15.208 11.4998C14.9599 11.4998 14.7521 11.416 14.5847 11.2484C14.4171 11.0806 14.3333 10.8728 14.3333 10.6248V3.39588Z" fill="#02060B"/>
</svg>
