<?xml version="1.0" encoding="UTF-8"?>
<svg xmlns="http://www.w3.org/2000/svg" xmlns:xlink="http://www.w3.org/1999/xlink" version="1.1" viewBox="0 0 180 50">
  <defs>
    <style>
      .cls-1 {
        fill: #010101;
      }

      .cls-2 {
        fill: url(#linear-gradient-2);
      }

      .cls-3 {
        fill: url(#linear-gradient);
      }

      .cls-4 {
        fill: #16406e;
      }
    </style>
    <linearGradient id="linear-gradient" x1="37.4" y1="10.9" x2="17.6" y2="30" gradientUnits="userSpaceOnUse">
      <stop offset="0" stop-color="#13a1bf"/>
      <stop offset="1" stop-color="#193e68"/>
    </linearGradient>
    <linearGradient id="linear-gradient-2" x1="16.5" y1="28.9" x2="48.4" y2="28.9" xlink:href="#linear-gradient"/>
  </defs>
  <!-- Generator: Adobe Illustrator 28.6.0, SVG Export Plug-In . SVG Version: 1.2.0 Build 709)  -->
  <g>
    <g id="Layer_1">
      <g>
        <path class="cls-4" d="M83,31.9c-.6.2-1.3.3-2,.4-.7.1-1.4.2-1.9.2-2,0-3.5-.5-4.5-1.6-1-1.1-1.5-2.8-1.5-5.1v-10.3h-2.2v-2.7h2.2v-5.6h3.3v5.6h6.7v2.7h-6.7v8.9c0,1,0,1.8,0,2.4,0,.6.2,1.1.5,1.6.3.5.6.8,1.1,1,.4.2,1.1.3,2,.3s1.1,0,1.7-.2c.6-.2,1-.3,1.3-.4h.2v2.9Z"/>
        <path class="cls-4" d="M102,32h-3.1v-11c0-.9,0-1.7-.1-2.5s-.3-1.4-.5-1.8c-.3-.5-.7-.8-1.2-1.1-.5-.2-1.2-.4-2-.4s-1.7.2-2.6.7c-.9.4-1.8,1-2.6,1.7v14.4h-3.1V5.2h3.1v9.7c1-.8,2-1.5,3-2,1-.5,2.1-.7,3.2-.7,2,0,3.5.6,4.5,1.9,1,1.3,1.6,3.1,1.6,5.4v12.5Z"/>
        <path class="cls-4" d="M125.3,22.4c0,3.2-.8,5.7-2.5,7.6-1.7,1.9-3.9,2.8-6.7,2.8s-5-.9-6.7-2.8c-1.7-1.9-2.5-4.4-2.5-7.6s.8-5.7,2.5-7.6c1.7-1.9,3.9-2.8,6.7-2.8s5,.9,6.7,2.8c1.7,1.9,2.5,4.4,2.5,7.6ZM121.8,22.4c0-2.5-.5-4.4-1.5-5.7-1-1.2-2.4-1.9-4.2-1.9s-3.2.6-4.2,1.9c-1,1.2-1.5,3.1-1.5,5.7s.5,4.3,1.5,5.6c1,1.3,2.4,1.9,4.2,1.9s3.2-.6,4.2-1.9c1-1.3,1.5-3.1,1.5-5.6Z"/>
        <path class="cls-4" d="M146.3,22.4c0,3.2-.8,5.7-2.4,7.6-1.6,1.9-3.7,2.8-6.4,2.8s-4.8-.9-6.4-2.8c-1.6-1.9-2.4-4.4-2.4-7.6s.8-5.7,2.4-7.6c1.6-1.9,3.7-2.8,6.4-2.8s4.8.9,6.4,2.8c1.6,1.9,2.4,4.4,2.4,7.6ZM143,22.4c0-2.5-.5-4.4-1.4-5.7-1-1.2-2.3-1.9-4-1.9s-3.1.6-4,1.9c-1,1.2-1.4,3.1-1.4,5.7s.5,4.3,1.4,5.6c1,1.3,2.3,1.9,4,1.9s3-.6,4-1.9c1-1.3,1.5-3.1,1.5-5.6Z"/>
        <path class="cls-4" d="M163.5,16h-.2c-.5-.1-1-.2-1.4-.3-.5,0-1,0-1.6,0-1,0-2,.2-3,.7-1,.5-1.9,1-2.7,1.8v14h-3.3V12.4h3.3v2.9c1.3-1.1,2.5-1.8,3.5-2.2s2-.7,3.1-.7,1,0,1.3,0c.3,0,.6,0,1.2.2v3.4Z"/>
        <g>
          <path class="cls-3" d="M38.7,13.1v9.3h-12.7v13.2h-9.5v-14.7h0c0-4.3,3.5-7.7,7.7-7.7h14.4Z"/>
          <path class="cls-2" d="M48.4,13.1v23c0,4.8-3.9,8.7-8.7,8.7h-23.2v-9.3h22.2V13.1h9.7Z"/>
        </g>
        <path class="cls-4" d="M66.7,32.1h-3.2v-2.1c-.3.2-.7.5-1.1.8-.5.4-.9.6-1.4.9-.5.3-1.1.5-1.8.7-.7.2-1.5.3-2.4.3-1.7,0-3.2-.6-4.3-1.8-1.2-1.2-1.8-2.7-1.8-4.5s.3-2.7.9-3.6c.6-.9,1.5-1.6,2.6-2.2,1.2-.5,2.5-.9,4.2-1.1,1.6-.2,3.4-.3,5.2-.4v-.5c0-.7-.1-1.4-.4-1.9s-.6-.9-1.1-1.2c-.5-.3-1-.5-1.6-.5-.6,0-1.3-.1-2-.1s-1.8.1-2.8.3c-1,.2-2.1.6-3.2,1h-.2v-3.4c.6-.2,1.5-.4,2.7-.6,1.2-.2,2.3-.3,3.5-.3s2.5.1,3.5.3c1,.2,1.8.6,2.6,1.2.7.5,1.3,1.2,1.6,2.1.4.9.6,1.9.6,3.2v13.3ZM63.5,27.3v-5.5c-1,0-2.1.1-3.4.3-1.3.1-2.4.3-3.1.5-.9.3-1.7.7-2.2,1.3-.6.6-.8,1.4-.8,2.3s.3,2,1,2.5c.7.6,1.7.9,3,.9s2.1-.2,3.1-.7c.9-.5,1.8-1,2.6-1.6Z"/>
        <g>
          <path class="cls-1" d="M54.1,36.9v1.7h2.6v.5h-2.6v1.9h-.6v-4.6h3.3v.5h-2.7Z"/>
          <path class="cls-1" d="M61.8,41.1c-.4,0-.7,0-1-.2-.3-.1-.5-.3-.7-.6s-.2-.6-.2-.9v-3h.6v2.9c0,.4.1.7.3,1s.5.3.9.3.7-.1,1-.3c.2-.2.3-.6.3-1v-2.9h.6v2.9c0,.4,0,.7-.2,1-.2.3-.4.5-.7.6-.3.1-.6.2-1,.2Z"/>
          <path class="cls-1" d="M70.4,41l-1.2-1.9h-1.4v1.9h-.6v-4.6h2.2c.5,0,.9.1,1.2.4.3.2.4.6.4,1s-.1.6-.3.9c-.2.2-.5.4-.8.4l1.3,2h-.7ZM70.3,37.7c0-.3,0-.5-.3-.6-.2-.1-.4-.2-.8-.2h-1.5v1.7h1.5c.3,0,.6,0,.8-.2.2-.2.3-.4.3-.7Z"/>
          <path class="cls-1" d="M77.4,41l-2.5-4v.3s0,.6,0,.6v3.1h-.6v-4.6h.7l2.5,4c0-.4,0-.7,0-.9v-3h.6v4.6h-.8Z"/>
          <path class="cls-1" d="M81.6,41v-4.6h.6v4.6h-.6Z"/>
          <path class="cls-1" d="M87.6,36.9v4.1h-.6v-4.1h-1.6v-.5h3.8v.5h-1.6Z"/>
          <path class="cls-1" d="M94.1,41.1c-.4,0-.7,0-1-.2-.3-.1-.5-.3-.7-.6s-.2-.6-.2-.9v-3h.6v2.9c0,.4.1.7.3,1s.5.3.9.3.7-.1,1-.3c.2-.2.3-.6.3-1v-2.9h.6v2.9c0,.4,0,.7-.2,1-.2.3-.4.5-.7.6-.3.1-.6.2-1,.2Z"/>
          <path class="cls-1" d="M102.7,41l-1.2-1.9h-1.4v1.9h-.6v-4.6h2.2c.5,0,.9.1,1.2.4.3.2.4.6.4,1s-.1.6-.3.9c-.2.2-.5.4-.8.4l1.3,2h-.7ZM102.6,37.7c0-.3,0-.5-.3-.6-.2-.1-.4-.2-.8-.2h-1.5v1.7h1.5c.3,0,.6,0,.8-.2.2-.2.3-.4.3-.7Z"/>
          <path class="cls-1" d="M106.7,41v-4.6h3.5v.5h-2.9v1.5h2.7v.5h-2.7v1.6h3v.5h-3.7Z"/>
          <path class="cls-1" d="M121,41l-1.2-1.9h-1.4v1.9h-.6v-4.6h2.2c.5,0,.9.1,1.2.4.3.2.4.6.4,1s-.1.6-.3.9c-.2.2-.5.4-.8.4l1.3,2h-.7ZM120.9,37.7c0-.3,0-.5-.3-.6-.2-.1-.4-.2-.8-.2h-1.5v1.7h1.5c.3,0,.6,0,.8-.2.2-.2.3-.4.3-.7Z"/>
          <path class="cls-1" d="M124.9,41v-4.6h3.5v.5h-2.9v1.5h2.7v.5h-2.7v1.6h3v.5h-3.7Z"/>
          <path class="cls-1" d="M134.8,41l-2.5-4v.3s0,.6,0,.6v3.1h-.6v-4.6h.7l2.5,4c0-.4,0-.7,0-.9v-3h.6v4.6h-.8Z"/>
          <path class="cls-1" d="M140.8,36.9v4.1h-.6v-4.1h-1.6v-.5h3.8v.5h-1.6Z"/>
          <path class="cls-1" d="M148.2,41l-.5-1.4h-2.1l-.5,1.4h-.7l1.9-4.6h.7l1.9,4.6h-.6ZM146.6,36.8h0c0,.3-.1.5-.2.8l-.6,1.5h1.7l-.6-1.5c0-.2-.1-.3-.2-.5v-.3Z"/>
          <path class="cls-1" d="M151.8,41v-4.6h.6v4.1h2.3v.5h-3Z"/>
          <path class="cls-1" d="M161.5,39.7c0,.4-.2.8-.5,1-.3.2-.8.4-1.4.4-1.1,0-1.8-.4-2-1.2h.6c0,.2.2.4.4.5.2.1.5.2.9.2s.7,0,.9-.2c.2-.1.3-.3.3-.6s0-.3-.1-.4c0,0-.2-.2-.3-.2-.1,0-.3-.1-.4-.2-.2,0-.4,0-.6-.1-.4,0-.6-.2-.8-.2s-.3-.2-.5-.3c-.1-.1-.2-.2-.3-.4,0-.1,0-.3,0-.5,0-.4.2-.7.5-.9.3-.2.7-.3,1.3-.3s.9,0,1.2.2c.3.2.5.4.6.8h-.6c0-.1-.2-.3-.4-.4-.2-.1-.5-.2-.8-.2s-.7,0-.9.2c-.2.1-.3.3-.3.6s0,.3.1.4c0,0,.2.2.3.2.1,0,.4.1.9.2.1,0,.3,0,.4.1.1,0,.3,0,.4.1.1,0,.3.1.4.2.1,0,.2.1.3.2s.1.2.2.3c0,.1,0,.3,0,.4Z"/>
        </g>
      </g>
    </g>
  </g>
</svg>