<svg width="97" height="75" viewBox="0 0 97 75" fill="none" xmlns="http://www.w3.org/2000/svg">
<path d="M16.5037 74.4611C15.529 74.4611 14.7128 74.1319 14.0551 73.4734C13.3966 72.8142 13.0674 71.9976 13.0674 71.0236V66.4403H11.8333C8.63111 66.4403 5.92083 65.3311 3.7025 63.1128C1.48417 60.8952 0.375 58.185 0.375 54.982V32.0653C0.375 28.6866 1.52809 25.9324 3.83427 23.8027C6.14122 21.6722 8.80757 20.607 11.8333 20.607V12.3226C11.8333 9.11961 12.9425 6.40933 15.1608 4.19176C17.3792 1.97342 20.0894 0.864258 23.2917 0.864258H73.7083C76.9106 0.864258 79.6208 1.97342 81.8392 4.19176C84.0575 6.40933 85.1667 9.11961 85.1667 12.3226V20.607C88.3101 20.607 91.0058 21.6944 93.254 23.8692C95.5013 26.0432 96.625 28.7752 96.625 32.0653V54.982C96.625 58.185 95.5158 60.8952 93.2975 63.1128C91.0792 65.3311 88.3689 66.4403 85.1667 66.4403H83.9326V71.0236C83.9326 71.9976 83.6183 72.8142 82.9896 73.4734C82.3609 74.1319 81.5592 74.4611 80.5845 74.4611C79.6105 74.4611 78.7939 74.1319 78.1347 73.4734C77.4755 72.8142 77.1458 71.9976 77.1458 71.0236V66.4403H19.9424V71.0236C19.9424 71.9991 19.6128 72.8161 18.9535 73.4746C18.2943 74.1323 17.4777 74.4611 16.5037 74.4611ZM11.8333 59.5653H85.1667C86.4653 59.5653 87.5538 59.1261 88.4323 58.2476C89.3108 57.3691 89.75 56.2806 89.75 54.982V32.0653C89.75 30.7667 89.3108 29.6781 88.4323 28.7997C87.5538 27.9212 86.4653 27.482 85.1667 27.482C83.8681 27.482 82.7795 27.9212 81.901 28.7997C81.0226 29.6781 80.5833 30.7667 80.5833 32.0653V49.2528H16.4167V32.0653C16.4167 30.7667 15.9774 29.6781 15.099 28.7997C14.2205 27.9212 13.1319 27.482 11.8333 27.482C10.5347 27.482 9.44618 27.9212 8.56771 28.7997C7.68924 29.6781 7.25 30.7667 7.25 32.0653V54.982C7.25 56.2806 7.68924 57.3691 8.56771 58.2476C9.44618 59.1261 10.5347 59.5653 11.8333 59.5653ZM23.2917 42.3778H73.7083V32.0653C73.7083 30.2091 74.1285 28.514 74.9688 26.9801C75.809 25.4462 76.9167 24.1621 78.2917 23.1278V12.3226C78.2917 11.024 77.8524 9.93544 76.974 9.05697C76.0955 8.17849 75.007 7.73926 73.7083 7.73926H23.2917C21.9931 7.73926 20.9045 8.17849 20.026 9.05697C19.1476 9.93544 18.7083 11.024 18.7083 12.3226V23.1278C20.0833 24.1621 21.191 25.4462 22.0312 26.9801C22.8715 28.514 23.2917 30.2091 23.2917 32.0653V42.3778Z" fill="#16406E"/>
</svg>
