<svg width="19" height="18" viewBox="0 0 19 18" fill="none" xmlns="http://www.w3.org/2000/svg">
<path d="M9.5 12.9801C9.35942 12.9801 9.22856 12.9576 9.10742 12.9127C8.98628 12.868 8.87107 12.791 8.76179 12.6817L5.13404 9.05396C4.9606 8.88032 4.87494 8.67722 4.87708 8.44467C4.87942 8.21211 4.96507 8.00532 5.13404 7.82429C5.31507 7.64346 5.52293 7.55003 5.75763 7.544C5.99251 7.53797 6.20047 7.62547 6.3815 7.8065L8.625 10.05V1.125C8.625 0.876694 8.70881 0.668833 8.87642 0.501417C9.04383 0.333805 9.25169 0.25 9.5 0.25C9.74831 0.25 9.95617 0.333805 10.1236 0.501417C10.2912 0.668833 10.375 0.876694 10.375 1.125V10.05L12.6185 7.8065C12.7921 7.63306 12.9982 7.5474 13.2365 7.54954C13.4751 7.55188 13.6849 7.64346 13.866 7.82429C14.0349 8.00532 14.1224 8.21026 14.1285 8.43913C14.1345 8.66799 14.047 8.87293 13.866 9.05396L10.2382 12.6817C10.1289 12.791 10.0137 12.868 9.89258 12.9127C9.77144 12.9576 9.64058 12.9801 9.5 12.9801ZM2.85904 17.75C2.26968 17.75 1.77083 17.5458 1.3625 17.1375C0.954167 16.7292 0.75 16.2303 0.75 15.641V13.3525C0.75 13.1042 0.833805 12.8964 1.00142 12.729C1.16883 12.5613 1.37669 12.4775 1.625 12.4775C1.87331 12.4775 2.08117 12.5613 2.24858 12.729C2.41619 12.8964 2.5 13.1042 2.5 13.3525V15.641C2.5 15.7308 2.53743 15.813 2.61229 15.8877C2.68696 15.9626 2.76921 16 2.85904 16H16.141C16.2308 16 16.313 15.9626 16.3877 15.8877C16.4626 15.813 16.5 15.7308 16.5 15.641V13.3525C16.5 13.1042 16.5838 12.8964 16.7514 12.729C16.9188 12.5613 17.1267 12.4775 17.375 12.4775C17.6233 12.4775 17.8312 12.5613 17.9986 12.729C18.1662 12.8964 18.25 13.1042 18.25 13.3525V15.641C18.25 16.2303 18.0458 16.7292 17.6375 17.1375C17.2292 17.5458 16.7303 17.75 16.141 17.75H2.85904Z" fill="#02060B"/>
</svg>
