<svg width="111" height="105" viewBox="0 0 111 105" fill="none" xmlns="http://www.w3.org/2000/svg">
<g clip-path="url(#clip0_261_2129)">
<path d="M52.9809 0C24.0437 0 0.5 23.5523 0.5 52.5C0.5 81.4477 24.0437 105 52.9809 105C77.1504 105 98.0822 88.5917 103.875 65.1L99.9554 64.1308C94.6104 85.8173 75.2893 100.962 52.9809 100.962C26.2681 100.962 4.53699 79.2225 4.53699 52.5C4.53699 25.7775 26.2681 4.03846 52.9809 4.03846C73.2063 4.03846 91.4252 16.905 98.3971 35.6677L90.6582 36.9842L103.5 52.4919L110.5 33.6121L102.426 34.9852C95.0746 14.2638 75.144 0 52.9809 0Z" fill="#16406E"/>
<path d="M31.5971 62.384C32.8607 61.548 34.2212 60.7646 35.6745 60.0175C37.1237 59.2744 38.5811 58.5313 40.0344 57.768C41.4998 56.9725 42.9411 56.1365 44.35 55.2642C45.7589 54.3919 47.0669 53.4146 48.2658 52.3282C49.4689 51.2459 50.5306 50.0182 51.443 48.6492C52.3634 47.2882 53.0578 45.7092 53.5382 43.9282C54.0468 42.0261 54.1599 40.3582 53.8813 38.9125C53.6068 37.4707 53.0295 36.2673 52.1454 35.294C51.2694 34.3248 50.1269 33.5817 48.7261 33.0728C47.3293 32.568 45.7548 32.3096 44.0068 32.3096C41.8834 32.3096 39.8851 32.673 38.024 33.3919C36.1629 34.1148 34.4997 35.1123 33.0423 36.3803C31.581 37.6525 30.3497 39.1628 29.3525 40.9075C28.3514 42.6601 27.6328 44.5542 27.2008 46.6057H32.0371C32.3238 45.3901 32.7759 44.1826 33.3774 42.9873C33.9789 41.7919 34.7298 40.7136 35.6341 39.7686C36.5343 38.8196 37.5638 38.0482 38.7264 37.4626C39.8931 36.8771 41.1729 36.5782 42.5818 36.5782C43.6435 36.5782 44.6043 36.7478 45.4601 37.0911C46.32 37.4344 47.0144 37.9271 47.5432 38.5692C48.0721 39.2153 48.4273 39.9867 48.609 40.8751C48.7826 41.7717 48.7261 42.7692 48.4314 43.8636C48.0559 45.273 47.5069 46.5048 46.7883 47.5709C46.0616 48.633 45.1574 49.6184 44.0512 50.5311C42.9572 51.4438 41.6411 52.3403 40.1111 53.2369C38.5851 54.1294 36.821 55.1067 34.8267 56.1688C33.1998 57.0088 31.6092 57.8973 30.0671 58.8463C28.5169 59.7953 27.0676 60.8978 25.7071 62.1498C24.3426 63.4057 23.1033 64.8798 21.9931 66.5638C20.8748 68.2599 19.9019 70.3034 19.0703 72.6942H45.4359L46.5784 68.4174H25.8484C26.4176 67.1655 27.1968 66.055 28.198 65.0898C29.1911 64.1246 30.3295 63.2199 31.5971 62.384Z" fill="#16406E"/>
<path d="M80.1669 32.3096L54.7379 58.5717L53.4824 63.2361H71.1927L68.6656 72.6942H73.2233L75.7545 63.2361H81.2206L82.3631 58.9674H76.897L84.0384 32.3096H80.1669ZM72.3433 58.9715H58.7951L77.5268 39.2032H77.6398L72.3433 58.9715Z" fill="#16406E"/>
<path d="M31.4824 75.7001V85.1074H30.2541V80.8424H25.4628V85.1074H24.2346V75.7001H25.4628V79.8302H30.2541V75.7001H31.4824ZM37.8445 85.2019C36.9717 85.2019 36.1754 84.9994 35.4556 84.5945C34.7358 84.1806 34.1644 83.6093 33.7415 82.8804C33.3276 82.1426 33.1206 81.3148 33.1206 80.397C33.1206 79.4793 33.3276 78.6559 33.7415 77.9271C34.1644 77.1893 34.7358 76.6179 35.4556 76.213C36.1754 75.7991 36.9717 75.5922 37.8445 75.5922C38.7263 75.5922 39.5271 75.7991 40.247 76.213C40.9668 76.6179 41.5337 77.1848 41.9476 77.9136C42.3615 78.6424 42.5684 79.4703 42.5684 80.397C42.5684 81.3238 42.3615 82.1516 41.9476 82.8804C41.5337 83.6093 40.9668 84.1806 40.247 84.5945C39.5271 84.9994 38.7263 85.2019 37.8445 85.2019ZM37.8445 84.1357C38.5014 84.1357 39.0907 83.9827 39.6126 83.6768C40.1435 83.3708 40.5574 82.9344 40.8543 82.3676C41.1602 81.8007 41.3132 81.1439 41.3132 80.397C41.3132 79.6412 41.1602 78.9844 40.8543 78.4265C40.5574 77.8596 40.148 77.4232 39.6261 77.1173C39.1042 76.8114 38.5104 76.6584 37.8445 76.6584C37.1787 76.6584 36.5848 76.8114 36.0629 77.1173C35.5411 77.4232 35.1272 77.8596 34.8212 78.4265C34.5243 78.9844 34.3758 79.6412 34.3758 80.397C34.3758 81.1439 34.5243 81.8007 34.8212 82.3676C35.1272 82.9344 35.5411 83.3708 36.0629 83.6768C36.5938 83.9827 37.1877 84.1357 37.8445 84.1357ZM45.391 75.7001V81.6522C45.391 82.489 45.5935 83.1099 45.9984 83.5148C46.4123 83.9197 46.9837 84.1222 47.7125 84.1222C48.4323 84.1222 48.9947 83.9197 49.3996 83.5148C49.8135 83.1099 50.0204 82.489 50.0204 81.6522V75.7001H51.2487V81.6387C51.2487 82.4216 51.0912 83.0829 50.7763 83.6228C50.4613 84.1536 50.0339 84.5496 49.4941 84.8105C48.9632 85.0714 48.3648 85.2019 47.699 85.2019C47.0331 85.2019 46.4303 85.0714 45.8904 84.8105C45.3595 84.5496 44.9366 84.1536 44.6217 83.6228C44.3158 83.0829 44.1628 82.4216 44.1628 81.6387V75.7001H45.391ZM58.2509 85.1074L56.0104 81.2608H54.5257V85.1074H53.2975V75.7001H56.3343C57.0451 75.7001 57.6435 75.8216 58.1294 76.0646C58.6243 76.3075 58.9932 76.6359 59.2361 77.0498C59.4791 77.4637 59.6005 77.9361 59.6005 78.467C59.6005 79.1148 59.4116 79.6862 59.0337 80.1811C58.6648 80.676 58.1069 81.0044 57.3601 81.1664L59.722 85.1074H58.2509ZM54.5257 80.2756H56.3343C57.0002 80.2756 57.4995 80.1136 57.8325 79.7897C58.1654 79.4568 58.3318 79.0159 58.3318 78.467C58.3318 77.9091 58.1654 77.4772 57.8325 77.1713C57.5085 76.8654 57.0092 76.7124 56.3343 76.7124H54.5257V80.2756ZM64.4918 85.2019C63.8709 85.2019 63.313 85.0939 62.8182 84.878C62.3323 84.653 61.9499 84.3471 61.6709 83.9602C61.392 83.5643 61.248 83.1099 61.239 82.597H62.5482C62.5932 83.0379 62.7732 83.4113 63.0881 83.7173C63.412 84.0142 63.8799 84.1626 64.4918 84.1626C65.0766 84.1626 65.5355 84.0187 65.8684 83.7307C66.2104 83.4338 66.3813 83.0559 66.3813 82.597C66.3813 82.2371 66.2823 81.9447 66.0844 81.7197C65.8864 81.4948 65.639 81.3238 65.3421 81.2068C65.0451 81.0899 64.6447 80.9639 64.1408 80.8289C63.52 80.667 63.0206 80.505 62.6427 80.343C62.2738 80.1811 61.9544 79.9291 61.6844 79.5872C61.4235 79.2363 61.293 78.7684 61.293 78.1836C61.293 77.6707 61.4235 77.2163 61.6844 76.8204C61.9454 76.4245 62.3098 76.1185 62.7777 75.9026C63.2546 75.6866 63.7989 75.5787 64.4108 75.5787C65.2926 75.5787 66.0124 75.7991 66.5703 76.24C67.1371 76.6809 67.4566 77.2658 67.5285 77.9946H66.1789C66.1339 77.6347 65.9449 77.3198 65.612 77.0498C65.2791 76.7709 64.8382 76.6314 64.2893 76.6314C63.7764 76.6314 63.358 76.7664 63.0341 77.0363C62.7102 77.2973 62.5482 77.6662 62.5482 78.1431C62.5482 78.485 62.6427 78.7639 62.8317 78.9799C63.0296 79.1958 63.2681 79.3623 63.547 79.4793C63.8349 79.5872 64.2353 79.7132 64.7482 79.8572C65.3691 80.0281 65.8684 80.1991 66.2464 80.37C66.6243 80.532 66.9482 80.7884 67.2181 81.1394C67.4881 81.4813 67.623 81.9492 67.623 82.543C67.623 83.0019 67.5016 83.4338 67.2586 83.8387C67.0157 84.2436 66.6558 84.572 66.1789 84.824C65.702 85.0759 65.1396 85.2019 64.4918 85.2019Z" fill="#16406E"/>
</g>
<defs>
<clipPath id="clip0_261_2129">
<rect width="110" height="105" fill="white" transform="translate(0.5)"/>
</clipPath>
</defs>
</svg>
