<svg width="8" height="5" viewBox="0 0 8 5" fill="none" xmlns="http://www.w3.org/2000/svg">
<path d="M3.99826 5C3.90803 5 3.82404 4.98401 3.74629 4.95204C3.66854 4.92007 3.5946 4.86527 3.52446 4.78763L0.159195 1.05564C0.0556116 0.940628 0.00257208 0.79607 7.61021e-05 0.621964C-0.00229508 0.447997 0.0507445 0.30081 0.159195 0.180403C0.26777 0.0601343 0.399308 0 0.553809 0C0.70831 0 0.839848 0.0601343 0.948423 0.180403L3.99826 3.5628L7.0481 0.180403C7.1518 0.0655318 7.28216 0.00671239 7.43915 0.00394441C7.59603 0.00131484 7.72875 0.0601343 7.83732 0.180403C7.94578 0.30081 8 0.446682 8 0.61802C8 0.789357 7.94578 0.93523 7.83732 1.05564L4.47206 4.78763C4.40192 4.86527 4.32798 4.92007 4.25023 4.95204C4.17248 4.98401 4.08849 5 3.99826 5Z" fill="#1C1B1F"/>
</svg>
