<svg width="49" height="48" viewBox="0 0 49 48" fill="none" xmlns="http://www.w3.org/2000/svg">
<path d="M24.0918 0.5C37.123 0.5 47.6836 11.0231 47.6836 24C47.6836 36.9769 37.123 47.5 24.0918 47.5C11.0606 47.5 0.5 36.9769 0.5 24C0.5 11.0231 11.0606 0.500039 24.0918 0.5Z" fill="white" stroke="#02060B"/>
<path d="M20.0768 22H17.0653L15.0576 33H33.1265L31.1189 22H28.1074M20.0768 22V19.0153C20.0768 16.7977 21.8745 15 24.0921 15V15C26.3097 15 28.1074 16.7977 28.1074 19.0153V22M20.0768 22H28.1074M20.0768 22V25M28.1074 22V25" stroke="#02060B" stroke-width="1.3" stroke-linecap="round" stroke-linejoin="round"/>
</svg>
