<svg width="32" height="32" viewBox="0 0 32 32" fill="none" xmlns="http://www.w3.org/2000/svg">
<circle cx="16" cy="16" r="16" fill="#E4EAF0"/>
<mask id="mask0_874_8083" style="mask-type:alpha" maskUnits="userSpaceOnUse" x="5" y="5" width="22" height="22">
<rect x="5.3335" y="5.33337" width="21.3333" height="21.3333" fill="#D9D9D9"/>
</mask>
<g mask="url(#mask0_874_8083)">
<path d="M8.88921 11.9316C8.88921 11.3106 9.10433 10.7849 9.53455 10.3547C9.96477 9.92463 10.4904 9.70959 11.1114 9.70959H20.8892C21.5103 9.70959 22.0359 9.92463 22.4661 10.3547C22.8963 10.7849 23.1114 11.3106 23.1114 11.9316V13.5385C23.7325 13.5385 24.2581 13.7536 24.6883 14.1838C25.1185 14.614 25.3337 15.1397 25.3337 15.7607V20.2052C25.3337 20.8262 25.1185 21.3518 24.6883 21.782C24.2581 22.2123 23.7325 22.4274 23.1114 22.4274H8.88921C8.26818 22.4274 7.74255 22.2123 7.31233 21.782C6.8821 21.3518 6.66699 20.8262 6.66699 20.2052V15.7607C6.66699 15.1397 6.8821 14.614 7.31233 14.1838C7.74255 13.7536 8.26818 13.5385 8.88921 13.5385V11.9316ZM10.2225 11.9316V14.0274C10.4892 14.228 10.704 14.477 10.867 14.7745C11.03 15.0718 11.1114 15.4006 11.1114 15.7607V17.7607H20.8892V15.7607C20.8892 15.4006 20.9707 15.0718 21.1337 14.7745C21.2966 14.477 21.5114 14.228 21.7781 14.0274V11.9316C21.7781 11.6797 21.6929 11.4686 21.5225 11.2983C21.3522 11.1279 21.1411 11.0427 20.8892 11.0427H11.1114C10.8596 11.0427 10.6485 11.1279 10.4781 11.2983C10.3077 11.4686 10.2225 11.6797 10.2225 11.9316ZM22.2225 19.094H9.7781V15.7607C9.7781 15.6422 9.75588 15.5274 9.71144 15.4163C9.66699 15.3052 9.60403 15.2089 9.52255 15.1274C9.44107 15.0459 9.34477 14.9829 9.23366 14.9385C9.12255 14.894 9.00773 14.8718 8.88921 14.8718C8.63736 14.8718 8.42625 14.957 8.25588 15.1274C8.08551 15.2977 8.00033 15.5089 8.00033 15.7607V20.2052C8.00033 20.457 8.08551 20.6681 8.25588 20.8385C8.42625 21.0089 8.63736 21.094 8.88921 21.094H23.1114C23.3633 21.094 23.5744 21.0089 23.7448 20.8385C23.9151 20.6681 24.0003 20.457 24.0003 20.2052V15.7607C24.0003 15.5089 23.9151 15.2977 23.7448 15.1274C23.5744 14.957 23.3633 14.8718 23.1114 14.8718C22.9929 14.8718 22.8781 14.894 22.767 14.9385C22.6559 14.9829 22.5596 15.0459 22.4781 15.1274C22.3966 15.2089 22.3337 15.3052 22.2892 15.4163C22.2448 15.5274 22.2225 15.6422 22.2225 15.7607V19.094Z" fill="#16406E"/>
</g>
</svg>
