<svg width="32" height="32" viewBox="0 0 32 32" fill="none" xmlns="http://www.w3.org/2000/svg">
<circle cx="16" cy="16" r="16" fill="#E4EAF0"/>
<mask id="mask0_874_8123" style="mask-type:alpha" maskUnits="userSpaceOnUse" x="5" y="5" width="22" height="22">
<rect x="5.33301" y="5.33337" width="21.3333" height="21.3333" fill="#D9D9D9"/>
</mask>
<g mask="url(#mask0_874_8123)">
<path d="M14.0543 11.8547H17.945L18.3075 11.0087H21.145C21.2019 11.0087 21.2489 10.9901 21.2859 10.9531C21.3229 10.9161 21.3415 10.869 21.3415 10.812C21.3415 10.2831 21.156 9.83036 20.7852 9.45376C20.4143 9.07717 19.9643 8.88888 19.4355 8.88888H12.5723C12.0458 8.88888 11.5951 9.07717 11.2201 9.45376C10.8453 9.83036 10.6579 10.2831 10.6579 10.812C10.6579 10.869 10.6764 10.9161 10.7135 10.9531C10.7505 10.9901 10.7975 11.0087 10.8543 11.0087H13.709L14.0543 11.8547ZM12.3775 24.4444C12.2493 24.4444 12.1386 24.3957 12.0455 24.2982C11.9523 24.2007 11.9057 24.0768 11.9057 23.9264C11.9057 23.7202 11.9909 23.5316 12.1612 23.3607C12.3316 23.1897 12.6128 23.0165 13.0048 22.8411C13.3752 22.6781 13.7558 22.5513 14.1468 22.4607C14.5376 22.3701 14.933 22.3083 15.333 22.2751V20.1282H13.427C13.2381 20.1282 13.0798 20.0643 12.9521 19.9364C12.8243 19.8086 12.7603 19.6502 12.7603 19.4613C12.7603 19.2723 12.8243 19.1139 12.9521 18.9862C13.0798 18.8587 13.2381 18.7949 13.427 18.7949H15.333V13.188H13.9399C13.6618 13.188 13.4185 13.1085 13.2099 12.9495C13.0015 12.7906 12.8613 12.588 12.7895 12.3418H10.8543C10.4429 12.3418 10.0866 12.201 9.78523 11.9195C9.48375 11.6381 9.33301 11.2917 9.33301 10.8804C9.33301 9.95347 9.6453 9.16762 10.2699 8.52288C10.8943 7.87799 11.6618 7.55554 12.5723 7.55554H19.4355C20.3461 7.55554 21.1123 7.87976 21.7339 8.52821C22.3555 9.17665 22.6663 9.96073 22.6663 10.8804C22.6663 11.2917 22.5151 11.6381 22.2126 11.9195C21.9099 12.201 21.5569 12.3418 21.1535 12.3418H19.2186C19.1363 12.5816 18.9925 12.7826 18.787 12.9447C18.5817 13.1069 18.342 13.188 18.0681 13.188H16.6663V18.7949H18.5723C18.7612 18.7949 18.9195 18.8588 19.0472 18.9867C19.1751 19.1145 19.239 19.2729 19.239 19.4618C19.239 19.6508 19.1751 19.8091 19.0472 19.9367C18.9195 20.0644 18.7612 20.1282 18.5723 20.1282H16.6663V22.2751C17.0663 22.3083 17.4617 22.3701 17.8526 22.4607C18.2435 22.5513 18.6242 22.6781 18.9946 22.8411C19.3866 23.0165 19.6677 23.1897 19.8381 23.3607C20.0085 23.5316 20.0937 23.7202 20.0937 23.9264C20.0937 24.0768 20.0471 24.2007 19.9539 24.2982C19.8607 24.3957 19.75 24.4444 19.6219 24.4444H12.3775Z" fill="#16406E"/>
</g>
</svg>
