<svg width="32" height="32" viewBox="0 0 32 32" fill="none" xmlns="http://www.w3.org/2000/svg">
<circle cx="16" cy="16" r="16" fill="#E4EAF0"/>
<path d="M16.1969 22C16.0345 22 15.8833 21.9744 15.7433 21.9233C15.6034 21.8721 15.4703 21.7844 15.344 21.6602L9.28655 15.689C9.1001 15.505 9.00463 15.2737 9.00014 14.9951C8.99587 14.7168 9.09134 14.4813 9.28655 14.2886C9.48199 14.0962 9.71875 14 9.99686 14C10.275 14 10.5117 14.0962 10.7072 14.2886L16.1969 19.5L21.6866 14.2886C21.8732 14.1049 22.1079 14.0107 22.3905 14.0063C22.6728 14.0021 22.9117 14.0962 23.1072 14.2886C23.3024 14.4813 23.4 14.7147 23.4 14.9888C23.4 15.263 23.3024 15.4964 23.1072 15.689L17.0497 21.6602C16.9235 21.7844 16.7904 21.8721 16.6504 21.9233C16.5105 21.9744 16.3593 22 16.1969 22Z" fill="#16406E"/>
</svg>
