<svg width="24" height="24" viewBox="0 0 24 24" fill="none" xmlns="http://www.w3.org/2000/svg">
<g opacity="0.5">
<mask id="mask0_0_249" style="mask-type:alpha" maskUnits="userSpaceOnUse" x="0" y="0" width="24" height="24">
<rect width="24" height="24" fill="#D9D9D9"/>
</mask>
<g mask="url(#mask0_0_249)">
<path d="M6.01167 12.7502H20.3887C20.6015 12.7502 20.7797 12.6784 20.9232 12.5347C21.0668 12.3912 21.1387 12.213 21.1387 12.0002C21.1387 11.7874 21.0668 11.6092 20.9232 11.4657C20.7797 11.322 20.6015 11.2502 20.3887 11.2502H6.01167L7.81942 9.42718C7.96809 9.27835 8.0415 9.10427 8.03967 8.90493C8.03767 8.7056 7.95917 8.52835 7.80417 8.37318C7.649 8.22835 7.47075 8.15335 7.26942 8.14818C7.06809 8.14318 6.895 8.21818 6.75017 8.37318L3.77142 11.3674C3.59059 11.5483 3.50017 11.7592 3.50017 12.0002C3.50017 12.2412 3.59059 12.4521 3.77142 12.6329L6.76567 15.6272C6.90417 15.7655 7.07559 15.8364 7.27992 15.8397C7.48442 15.8429 7.66425 15.772 7.81942 15.6272C7.97459 15.472 8.05217 15.2938 8.05217 15.0924C8.05217 14.8913 7.97459 14.7131 7.81942 14.5579L6.01167 12.7502Z" fill="#1C1B1F"/>
</g>
</g>
</svg>
