<svg width="49" height="48" viewBox="0 0 49 48" fill="none" xmlns="http://www.w3.org/2000/svg">
<path d="M24.0918 0.5C37.123 0.5 47.6836 11.0231 47.6836 24C47.6836 36.9769 37.123 47.5 24.0918 47.5C11.0606 47.5 0.5 36.9769 0.5 24C0.5 11.0231 11.0606 0.500039 24.0918 0.5Z" fill="white" stroke="#02060B"/>
<mask id="mask0_0_75" style="mask-type:alpha" maskUnits="userSpaceOnUse" x="9" y="9" width="29" height="30">
<rect x="9.17871" y="9.302" width="28.8" height="28.8" fill="#D9D9D9"/>
</mask>
<g mask="url(#mask0_0_75)">
<path d="M21.602 29.0403C19.5528 29.0403 17.8174 28.3296 16.3958 26.9082C14.9744 25.4866 14.2637 23.7512 14.2637 21.702C14.2637 19.6528 14.9744 17.9174 16.3958 16.4958C17.8174 15.0744 19.5528 14.3637 21.602 14.3637C23.6512 14.3637 25.3866 15.0744 26.8082 16.4958C28.2296 17.9174 28.9403 19.6528 28.9403 21.702C28.9403 22.559 28.7965 23.3775 28.5089 24.1575C28.2211 24.9375 27.8372 25.6159 27.3572 26.1927L34.262 33.0975C34.4282 33.2635 34.5132 33.4723 34.517 33.7239C34.5208 33.9755 34.4358 34.1882 34.262 34.362C34.0882 34.5358 33.8774 34.6227 33.6296 34.6227C33.382 34.6227 33.1713 34.5358 32.9975 34.362L26.0927 27.4572C25.4927 27.9526 24.8027 28.3403 24.0227 28.6203C23.2427 28.9003 22.4358 29.0403 21.602 29.0403ZM21.602 27.2406C23.1482 27.2406 24.4578 26.704 25.5308 25.6308C26.604 24.5578 27.1406 23.2482 27.1406 21.702C27.1406 20.1558 26.604 18.8462 25.5308 17.7732C24.4578 16.7 23.1482 16.1634 21.602 16.1634C20.0558 16.1634 18.7462 16.7 17.6732 17.7732C16.6 18.8462 16.0634 20.1558 16.0634 21.702C16.0634 23.2482 16.6 24.5578 17.6732 25.6308C18.7462 26.704 20.0558 27.2406 21.602 27.2406Z" fill="#02060B"/>
</g>
</svg>
