<svg width="32" height="32" viewBox="0 0 32 32" fill="none" xmlns="http://www.w3.org/2000/svg">
<circle cx="16" cy="16" r="16" fill="#E4EAF0"/>
<mask id="mask0_874_8113" style="mask-type:alpha" maskUnits="userSpaceOnUse" x="5" y="5" width="22" height="22">
<rect x="5.33301" y="5.33337" width="21.3333" height="21.3333" fill="#D9D9D9"/>
</mask>
<g mask="url(#mask0_874_8113)">
<path d="M11.8409 23.5556C11.6517 23.5556 11.4873 23.4835 11.3478 23.3393C11.2081 23.1952 11.1502 23.0285 11.1742 22.8393L11.94 14.3009L11.2631 10.2205C11.2004 9.88668 11.2844 9.5072 11.5151 9.08201C11.7459 8.65698 12.2374 8.44446 12.9896 8.44446C13.7838 8.44446 14.4764 8.70031 15.0673 9.21201C15.6581 9.72372 16.0219 10.3722 16.1587 11.1573L16.5587 13.6069H20.222C20.4112 13.6069 20.5696 13.6707 20.6971 13.7982C20.8248 13.9259 20.8887 14.0844 20.8887 14.2736C20.8887 14.4628 20.8248 14.6211 20.6971 14.7487C20.5696 14.8764 20.4112 14.9402 20.222 14.9402H19.2596L19.9622 22.8393C19.9861 23.0285 19.9305 23.1952 19.7956 23.3393C19.6604 23.4835 19.4938 23.5556 19.2956 23.5556C19.1212 23.5556 18.9747 23.4963 18.8562 23.3778C18.7377 23.2593 18.6664 23.1174 18.6424 22.9522L18.5451 21.8291H12.5913L12.4938 22.9522C12.4699 23.1174 12.3987 23.2593 12.2802 23.3778C12.1617 23.4963 12.0153 23.5556 11.8409 23.5556ZM12.9553 13.6069H15.2118L14.8391 11.3778C14.765 10.9197 14.5528 10.5385 14.2024 10.2342C13.8519 9.92994 13.4476 9.77779 12.9896 9.77779H12.7793C12.7167 9.77779 12.6639 9.80201 12.6211 9.85046C12.5784 9.8989 12.5628 9.95446 12.5742 10.0171L12.9553 13.6069ZM12.7127 20.4958H18.41L18.2289 18.3847H12.9076L12.7127 20.4958ZM13.0202 17.0513H18.116L17.9127 14.9402H13.21L13.0202 17.0513Z" fill="#16406E"/>
</g>
</svg>
