<svg width="32" height="32" viewBox="0 0 32 32" fill="none" xmlns="http://www.w3.org/2000/svg">
<circle cx="16" cy="16" r="16" fill="#E4EAF0"/>
<mask id="mask0_874_8103" style="mask-type:alpha" maskUnits="userSpaceOnUse" x="5" y="5" width="22" height="22">
<rect x="5.33301" y="5.33337" width="21.3333" height="21.3333" fill="#D9D9D9"/>
</mask>
<g mask="url(#mask0_874_8103)">
<path d="M9.77745 23.6922C9.58841 23.6922 9.43011 23.6284 9.30256 23.5007C9.17485 23.3728 9.111 23.2145 9.111 23.0256V20.4102C9.111 19.9683 9.26834 19.59 9.583 19.2754C9.89767 18.9607 10.276 18.8034 10.7179 18.8034H21.2819C21.7238 18.8034 22.1021 18.9607 22.4168 19.2754C22.7314 19.59 22.8888 19.9683 22.8888 20.4102V23.0256C22.8888 23.2145 22.8249 23.3728 22.697 23.5007C22.5692 23.6284 22.4108 23.6922 22.2219 23.6922C22.0329 23.6922 21.8746 23.6284 21.747 23.5007C21.6193 23.3728 21.5554 23.2145 21.5554 23.0256V20.4102C21.5554 20.3305 21.5298 20.265 21.4786 20.2136C21.4273 20.1623 21.3617 20.1367 21.2819 20.1367H10.7179C10.638 20.1367 10.5725 20.1623 10.5212 20.2136C10.47 20.265 10.4443 20.3305 10.4443 20.4102V23.0256C10.4443 23.2145 10.3804 23.3728 10.2526 23.5007C10.1247 23.6284 9.96634 23.6922 9.77745 23.6922ZM9.55656 17.624C9.24811 17.624 8.98567 17.5161 8.76922 17.3002C8.55263 17.0844 8.44434 16.8222 8.44434 16.5138C8.44434 16.2055 8.55226 15.9431 8.76811 15.7265C8.98397 15.51 9.24611 15.4018 9.55456 15.4018C9.86285 15.4018 10.1252 15.5097 10.3417 15.7256C10.5583 15.9414 10.6666 16.2035 10.6666 16.5118C10.6666 16.8202 10.5586 17.0827 10.3428 17.2991C10.1269 17.5157 9.86485 17.624 9.55656 17.624ZM11.8974 17.5727V9.9658C11.8974 9.52402 12.0548 9.1458 12.3694 8.83113C12.6841 8.51647 13.0623 8.35913 13.5041 8.35913H18.4957C18.9374 8.35913 19.3157 8.51647 19.6303 8.83113C19.945 9.1458 20.1023 9.52402 20.1023 9.9658V17.5727H11.8974ZM22.4452 17.624C22.1369 17.624 21.8746 17.5161 21.6581 17.3002C21.4415 17.0844 21.3332 16.8222 21.3332 16.5138C21.3332 16.2055 21.4412 15.9431 21.657 15.7265C21.8729 15.51 22.1349 15.4018 22.4432 15.4018C22.7517 15.4018 23.0141 15.5097 23.2306 15.7256C23.4472 15.9414 23.5554 16.2035 23.5554 16.5118C23.5554 16.8202 23.4475 17.0827 23.2317 17.2991C23.0158 17.5157 22.7537 17.624 22.4452 17.624ZM13.2306 16.2394H18.7692V9.9658C18.7692 9.88609 18.7435 9.82061 18.6921 9.76935C18.6409 9.71795 18.5754 9.69224 18.4957 9.69224H13.5041C13.4244 9.69224 13.3589 9.71795 13.3077 9.76935C13.2563 9.82061 13.2306 9.88609 13.2306 9.9658V16.2394Z" fill="#16406E"/>
</g>
</svg>
