<svg width="48" height="48" viewBox="0 0 48 48" fill="none" xmlns="http://www.w3.org/2000/svg">
<circle cx="24" cy="24" r="23.3661" fill="white" stroke="#02060B" stroke-width="1.26786"/>
<mask id="mask0_0_66" style="mask-type:alpha" maskUnits="userSpaceOnUse" x="9" y="9" width="30" height="30">
<rect x="9.23047" y="9.23077" width="29.5385" height="29.6515" fill="#D9D9D9"/>
</mask>
<g mask="url(#mask0_0_66)">
<path d="M33.1598 34.832C30.8404 34.832 28.5102 34.2927 26.1693 33.2142C23.8286 32.1356 21.6779 30.6142 19.7173 28.6499C17.7569 26.6853 16.2374 24.5346 15.1589 22.1976C14.0803 19.8607 13.541 17.5326 13.541 15.2132C13.541 14.8405 13.6641 14.53 13.9102 14.2816C14.1564 14.0331 14.4641 13.9089 14.8333 13.9089H18.8475C19.1582 13.9089 19.4324 14.0104 19.6699 14.2132C19.9075 14.4159 20.0586 14.6664 20.1232 14.9646L20.8287 18.5859C20.8775 18.9219 20.8673 19.2106 20.7979 19.452C20.7284 19.6934 20.6037 19.8962 20.4238 20.0603L17.5813 22.8274C18.0388 23.6651 18.5614 24.4577 19.1493 25.2049C19.737 25.952 20.3733 26.6656 21.0582 27.3456C21.7335 28.021 22.4515 28.6483 23.2121 29.2274C23.9727 29.8065 24.794 30.3453 25.6761 30.844L28.4379 28.0582C28.6306 27.8578 28.8638 27.7172 29.1376 27.6366C29.4113 27.5562 29.6957 27.5365 29.9909 27.5776L33.4084 28.2736C33.7192 28.3556 33.9728 28.5142 34.1693 28.7492C34.3658 28.9843 34.4641 29.251 34.4641 29.5492V33.5397C34.4641 33.9089 34.3399 34.2166 34.0915 34.4628C33.8431 34.7089 33.5325 34.832 33.1598 34.832ZM16.7078 21.0806L18.9044 18.9788C18.9438 18.9472 18.9694 18.9038 18.9813 18.8486C18.9932 18.7934 18.9913 18.7422 18.9755 18.6948L18.4404 15.9443C18.4246 15.8813 18.397 15.8341 18.3576 15.8025C18.3182 15.7709 18.267 15.7551 18.2038 15.7551H15.5718C15.5244 15.7551 15.4849 15.7709 15.4533 15.8025C15.4219 15.8341 15.4062 15.8736 15.4062 15.9209C15.4692 16.762 15.6069 17.6163 15.8192 18.484C16.0313 19.3519 16.3275 20.2174 16.7078 21.0806ZM27.4155 31.7172C28.2313 32.0976 29.0821 32.3883 29.9681 32.5896C30.8542 32.7906 31.6822 32.9101 32.4521 32.948C32.4995 32.948 32.539 32.9322 32.5706 32.9006C32.6021 32.869 32.6179 32.8296 32.6179 32.7822V30.1929C32.6179 30.1298 32.6021 30.0785 32.5706 30.0391C32.539 29.9997 32.4917 29.9721 32.4287 29.9563L29.8441 29.4308C29.7967 29.415 29.7553 29.413 29.7198 29.4249C29.6843 29.4368 29.6468 29.4625 29.6072 29.5019L27.4155 31.7172Z" fill="#02060B"/>
</g>
</svg>
