<svg width="32" height="32" viewBox="0 0 32 32" fill="none" xmlns="http://www.w3.org/2000/svg">
<circle cx="16" cy="16" r="16" fill="#E4EAF0"/>
<mask id="mask0_874_8093" style="mask-type:alpha" maskUnits="userSpaceOnUse" x="5" y="5" width="22" height="22">
<rect x="5.3335" y="5.33337" width="21.3333" height="21.3333" fill="#D9D9D9"/>
</mask>
<g mask="url(#mask0_874_8093)">
<path d="M9.37627 20.7779V23.0256C9.37627 23.1788 9.32627 23.3054 9.22627 23.4054C9.12627 23.5056 8.99982 23.5556 8.84693 23.5556C8.6939 23.5556 8.56723 23.5056 8.46693 23.4054C8.36664 23.3054 8.31649 23.1788 8.31649 23.0256V20.7247C8.08405 20.6507 7.89034 20.5227 7.73538 20.341C7.58042 20.1593 7.48812 19.9403 7.45849 19.6839L6.73871 12.5796C6.71486 12.3905 6.7713 12.2224 6.90805 12.0754C7.04479 11.9283 7.21056 11.8547 7.40538 11.8547C7.57975 11.8547 7.73012 11.9134 7.85649 12.0307C7.98286 12.1481 8.0576 12.2906 8.08071 12.4583L8.68738 18.4959H12.4105C12.8524 18.4959 13.2307 18.6532 13.5454 18.9679C13.86 19.2825 14.0174 19.6607 14.0174 20.1025C14.0174 20.2939 13.9526 20.4543 13.8232 20.5836C13.6938 20.7131 13.5335 20.7779 13.342 20.7779H13.2309V23.0343C13.2309 23.1813 13.1821 23.3049 13.0845 23.4052C12.9867 23.5055 12.863 23.5556 12.7134 23.5556C12.5639 23.5556 12.4376 23.5041 12.3345 23.401C12.2314 23.2979 12.1798 23.1727 12.1798 23.0256V20.7779H9.37627ZM12.6414 13.265C12.4209 13.265 12.2362 13.1905 12.0872 13.0414C11.9381 12.8924 11.8636 12.7076 11.8636 12.4872C11.8636 11.5893 12.2032 10.8391 12.8823 10.2367C13.5615 9.63453 14.3644 9.33341 15.2909 9.33341H15.3336V7.33341C15.3336 7.14453 15.3975 6.98623 15.5254 6.85853C15.6532 6.73067 15.8116 6.66675 16.0005 6.66675C16.1895 6.66675 16.3478 6.73067 16.4754 6.85853C16.6031 6.98623 16.6669 7.14453 16.6669 7.33341V9.33341H16.7183C17.6448 9.33341 18.4476 9.63453 19.1267 10.2367C19.806 10.8391 20.1456 11.5893 20.1456 12.4872C20.1456 12.7076 20.0711 12.8924 19.922 13.0414C19.7729 13.1905 19.5881 13.265 19.3678 13.265H12.6414ZM13.3472 11.9316H18.6534C18.5531 11.5306 18.3198 11.2195 17.9534 10.9983C17.5869 10.7773 17.1752 10.6667 16.7183 10.6667H15.2909C14.8339 10.6667 14.4208 10.7759 14.0516 10.9941C13.6823 11.2123 13.4475 11.5248 13.3472 11.9316ZM23.18 23.5556C23.0272 23.5556 22.9006 23.5056 22.8003 23.4054C22.7 23.3054 22.6498 23.1788 22.6498 23.0256V20.7779H19.8207V23.0256C19.8207 23.1727 19.7706 23.2979 19.6703 23.401C19.57 23.5041 19.4463 23.5556 19.2994 23.5556C19.1524 23.5556 19.0274 23.5055 18.9243 23.4052C18.8212 23.3049 18.7696 23.1813 18.7696 23.0343V20.7779H18.6585C18.4671 20.7779 18.3067 20.7131 18.1774 20.5836C18.0479 20.4543 17.9832 20.2939 17.9832 20.1025C17.9832 19.6607 18.1405 19.2825 18.4552 18.9679C18.7698 18.6532 19.1481 18.4959 19.59 18.4959H23.3267L23.9507 12.4412C23.9732 12.2759 24.0463 12.1354 24.17 12.0199C24.2939 11.9042 24.4458 11.8463 24.6258 11.8463C24.815 11.8519 24.9757 11.9268 25.1078 12.071C25.2401 12.2151 25.2943 12.3818 25.2703 12.571L24.5558 19.6839C24.5262 19.9345 24.4344 20.1507 24.2805 20.3325C24.1267 20.5143 23.9364 20.6422 23.7096 20.7163V23.0256C23.7096 23.1788 23.6596 23.3054 23.5596 23.4054C23.4596 23.5056 23.3331 23.5556 23.18 23.5556ZM15.3336 16.547H10.7867C10.5978 16.547 10.4395 16.4831 10.3116 16.3554C10.1839 16.2276 10.12 16.0691 10.12 15.8801C10.12 15.6912 10.1839 15.5329 10.3116 15.4052C10.4395 15.2776 10.5978 15.2139 10.7867 15.2139H21.2138C21.4027 15.2139 21.5611 15.2777 21.6889 15.4054C21.8166 15.5333 21.8805 15.6917 21.8805 15.8807C21.8805 16.0696 21.8166 16.2279 21.6889 16.3556C21.5611 16.4832 21.4027 16.547 21.2138 16.547H16.6669V22.889C16.6669 23.0779 16.603 23.2362 16.4752 23.3639C16.3473 23.4917 16.1889 23.5556 16 23.5556C15.811 23.5556 15.6527 23.4917 15.5252 23.3639C15.3975 23.2362 15.3336 23.0779 15.3336 22.889V16.547Z" fill="#16406E"/>
</g>
</svg>
