<svg width="49" height="48" viewBox="0 0 49 48" fill="none" xmlns="http://www.w3.org/2000/svg">
<path d="M24.0918 0.5C37.123 0.5 47.6836 11.0231 47.6836 24C47.6836 36.9769 37.123 47.5 24.0918 47.5C11.0606 47.5 0.5 36.9769 0.5 24C0.5 11.0231 11.0606 0.500039 24.0918 0.5Z" fill="white" stroke="#02060B"/>
<mask id="mask0_0_80" style="mask-type:alpha" maskUnits="userSpaceOnUse" x="9" y="9" width="29" height="30">
<rect x="9.17871" y="9.302" width="28.8" height="28.8" fill="#D9D9D9"/>
</mask>
<g mask="url(#mask0_0_80)">
<path d="M20.9436 23.3327C20.393 23.3327 19.9354 23.1281 19.5708 22.7189C19.2062 22.3097 19.0623 21.8297 19.1391 21.2789L19.5177 18.3737C19.6545 17.3797 20.1091 16.5577 20.8815 15.9077C21.6537 15.2577 22.5529 14.9327 23.5791 14.9327C24.6053 14.9327 25.5045 15.2577 26.2767 15.9077C27.0491 16.5577 27.5037 17.3797 27.6405 18.3737L28.0191 21.2789C28.0959 21.8297 27.952 22.3097 27.5874 22.7189C27.2228 23.1281 26.7652 23.3327 26.2146 23.3327H20.9436ZM20.9091 21.5327H26.2491L25.8591 18.6527C25.7791 18.0927 25.5241 17.6327 25.0941 17.2727C24.6641 16.9127 24.1591 16.7327 23.5791 16.7327C22.9991 16.7327 22.4941 16.9127 22.0641 17.2727C21.6341 17.6327 21.3791 18.0927 21.2991 18.6527L20.9091 21.5327ZM14.5791 30.6482V29.8034C14.5791 29.2158 14.7387 28.6716 15.0579 28.1708C15.3771 27.67 15.8037 27.285 16.3377 27.0158C17.5237 26.4344 18.7202 25.9983 19.9272 25.7075C21.1342 25.4167 22.3515 25.2713 23.5791 25.2713C24.8067 25.2713 26.024 25.4167 27.231 25.7075C28.438 25.9983 29.6345 26.4344 30.8205 27.0158C31.3545 27.285 31.7811 27.67 32.1003 28.1708C32.4195 28.6716 32.5791 29.2158 32.5791 29.8034V30.6482C32.5791 31.1542 32.4018 31.5846 32.0472 31.9394C31.6926 32.294 31.2622 32.4713 30.756 32.4713H16.4022C15.896 32.4713 15.4656 32.294 15.111 31.9394C14.7564 31.5846 14.5791 31.1542 14.5791 30.6482ZM16.3791 30.6713H30.7791V29.8034C30.7791 29.5604 30.7087 29.3354 30.5679 29.1284C30.4271 28.9216 30.236 28.7528 29.9946 28.622C28.9606 28.1128 27.9071 27.727 26.8341 27.4646C25.7611 27.2024 24.6761 27.0713 23.5791 27.0713C22.4821 27.0713 21.3971 27.2024 20.3241 27.4646C19.2511 27.727 18.1976 28.1128 17.1636 28.622C16.9222 28.7528 16.7311 28.9216 16.5903 29.1284C16.4495 29.3354 16.3791 29.5604 16.3791 29.8034V30.6713Z" fill="#02060B"/>
</g>
</svg>
