<svg width="21" height="21" viewBox="0 0 21 21" fill="none" xmlns="http://www.w3.org/2000/svg">
<path d="M7.60197 15.0403C5.55277 15.0403 3.81737 14.3296 2.39577 12.9082C0.974372 11.4866 0.263672 9.75121 0.263672 7.70202C0.263672 5.65282 0.974372 3.91742 2.39577 2.49582C3.81737 1.07442 5.55277 0.363716 7.60197 0.363716C9.65117 0.363716 11.3866 1.07442 12.8082 2.49582C14.2296 3.91742 14.9403 5.65282 14.9403 7.70202C14.9403 8.55902 14.7965 9.37752 14.5089 10.1575C14.2211 10.9375 13.8372 11.6159 13.3572 12.1927L20.262 19.0975C20.4282 19.2635 20.5132 19.4723 20.517 19.7239C20.5208 19.9755 20.4358 20.1882 20.262 20.362C20.0882 20.5358 19.8774 20.6227 19.6296 20.6227C19.382 20.6227 19.1713 20.5358 18.9975 20.362L12.0927 13.4572C11.4927 13.9526 10.8027 14.3403 10.0227 14.6203C9.24267 14.9003 8.43577 15.0403 7.60197 15.0403ZM7.60197 13.2406C9.14817 13.2406 10.4578 12.704 11.5308 11.6308C12.604 10.5578 13.1406 9.24822 13.1406 7.70202C13.1406 6.15582 12.604 4.84621 11.5308 3.77322C10.4578 2.70002 9.14817 2.16342 7.60197 2.16342C6.05577 2.16342 4.74617 2.70002 3.67317 3.77322C2.59997 4.84621 2.06337 6.15582 2.06337 7.70202C2.06337 9.24822 2.59997 10.5578 3.67317 11.6308C4.74617 12.704 6.05577 13.2406 7.60197 13.2406Z" fill="#02060B"/>
</svg>
