<svg width="16" height="19" viewBox="0 0 16 19" fill="none" xmlns="http://www.w3.org/2000/svg">
<path d="M1.33398 14.4841V7.58969C1.33398 4.56188 1.33398 3.04798 2.31029 2.10737C3.28661 1.16675 4.85796 1.16675 8.00063 1.16675C11.1434 1.16675 12.7147 1.16675 13.691 2.10737C14.6674 3.04798 14.6674 4.56188 14.6674 7.58969V14.4841C14.6674 16.4057 14.6674 17.3664 14.0233 17.7103C12.7761 18.3763 10.4366 16.1544 9.32563 15.4854C8.68136 15.0974 8.35918 14.9034 8.00063 14.9034C7.64218 14.9034 7.31999 15.0974 6.67566 15.4854C5.56465 16.1544 3.22521 18.3763 1.97803 17.7103C1.33398 17.3664 1.33398 16.4057 1.33398 14.4841Z" stroke="#02060B" stroke-width="1.36364" stroke-linecap="round" stroke-linejoin="round"/>
</svg>
