<svg width="14" height="17" viewBox="0 0 14 17" fill="none" xmlns="http://www.w3.org/2000/svg">
<path d="M5.05532 4.35465H8.94598L9.30843 3.50865H12.146C12.2029 3.50865 12.2498 3.49013 12.2869 3.4531C12.3239 3.41606 12.3424 3.36902 12.3424 3.31199C12.3424 2.7831 12.157 2.33036 11.7862 1.95376C11.4152 1.57717 10.9653 1.38888 10.4364 1.38888H3.57332C3.0468 1.38888 2.59606 1.57717 2.2211 1.95376C1.84628 2.33036 1.65887 2.7831 1.65887 3.31199C1.65887 3.36902 1.67739 3.41606 1.71443 3.4531C1.75147 3.49013 1.79843 3.50865 1.85532 3.50865H4.70998L5.05532 4.35465ZM3.37843 16.9444C3.25028 16.9444 3.13961 16.8957 3.04643 16.7982C2.95324 16.7007 2.90665 16.5768 2.90665 16.4264C2.90665 16.2202 2.99184 16.0316 3.16221 15.8607C3.33258 15.6897 3.61376 15.5165 4.00576 15.3411C4.37613 15.1781 4.7568 15.0513 5.14776 14.9607C5.53858 14.8701 5.93398 14.8083 6.33398 14.7751V12.6282H4.42799C4.2391 12.6282 4.0808 12.5643 3.9531 12.4364C3.82524 12.3086 3.76132 12.1502 3.76132 11.9613C3.76132 11.7723 3.82524 11.6139 3.9531 11.4862C4.0808 11.3587 4.2391 11.2949 4.42799 11.2949H6.33398V5.68799H4.94087C4.6628 5.68799 4.41947 5.6085 4.21087 5.44954C4.00243 5.29058 3.86228 5.08799 3.79043 4.84176H1.85532C1.44391 4.84176 1.08754 4.70102 0.786207 4.41954C0.484725 4.13806 0.333984 3.79169 0.333984 3.38043C0.333984 2.45347 0.646281 1.66762 1.27087 1.02288C1.89532 0.377987 2.6628 0.055542 3.57332 0.055542H10.4364C11.3471 0.055542 12.1132 0.379765 12.7349 1.02821C13.3565 1.67665 13.6673 2.46073 13.6673 3.38043C13.6673 3.79169 13.5161 4.13806 13.2135 4.41954C12.9109 4.70102 12.5578 4.84176 12.1544 4.84176H10.2195C10.1373 5.08162 9.99347 5.28258 9.78798 5.44465C9.58265 5.60688 9.34302 5.68799 9.0691 5.68799H7.66732V11.2949H9.57332C9.76221 11.2949 9.9205 11.3588 10.0482 11.4867C10.1761 11.6145 10.24 11.7729 10.24 11.9618C10.24 12.1508 10.1761 12.3091 10.0482 12.4367C9.9205 12.5644 9.76221 12.6282 9.57332 12.6282H7.66732V14.7751C8.06732 14.8083 8.46273 14.8701 8.85354 14.9607C9.2445 15.0513 9.62517 15.1781 9.99554 15.3411C10.3875 15.5165 10.6687 15.6897 10.8391 15.8607C11.0095 16.0316 11.0947 16.2202 11.0947 16.4264C11.0947 16.5768 11.0481 16.7007 10.9549 16.7982C10.8617 16.8957 10.751 16.9444 10.6229 16.9444H3.37843Z" fill="#16406E"/>
</svg>
