<svg width="19" height="18" viewBox="0 0 19 18" fill="none" xmlns="http://www.w3.org/2000/svg">
<path d="M2.87724 14.2777V16.5255C2.87724 16.6787 2.82724 16.8053 2.72724 16.9053C2.62724 17.0054 2.5008 17.0555 2.34791 17.0555C2.19487 17.0555 2.06821 17.0054 1.96791 16.9053C1.86761 16.8053 1.81747 16.6787 1.81747 16.5255V14.2246C1.58502 14.1506 1.39132 14.0226 1.23636 13.8408C1.08139 13.6592 0.989096 13.4402 0.959467 13.1837L0.239689 6.07952C0.215837 5.89033 0.272281 5.72226 0.409022 5.57529C0.545763 5.42818 0.711541 5.35463 0.906356 5.35463C1.08073 5.35463 1.2311 5.41329 1.35747 5.53063C1.48384 5.64796 1.55858 5.79048 1.58169 5.95818L2.18836 11.9957H5.91147C6.35339 11.9957 6.73169 12.1531 7.04636 12.4677C7.36102 12.7824 7.51836 13.1606 7.51836 13.6024C7.51836 13.7938 7.45362 13.9542 7.32413 14.0835C7.1948 14.213 7.03443 14.2777 6.84302 14.2777H6.73191V16.5342C6.73191 16.6811 6.6831 16.8048 6.58547 16.9051C6.48769 17.0054 6.36399 17.0555 6.21436 17.0555C6.06487 17.0555 5.93858 17.004 5.83547 16.9008C5.73236 16.7977 5.6808 16.6726 5.6808 16.5255V14.2777H2.87724ZM6.14236 6.76485C5.92191 6.76485 5.73717 6.69033 5.58813 6.54129C5.4391 6.39226 5.36458 6.20751 5.36458 5.98707C5.36458 5.08914 5.70413 4.339 6.38324 3.73663C7.0625 3.1344 7.86539 2.83329 8.79191 2.83329H8.83458V0.833293C8.83458 0.644404 8.89851 0.486108 9.02636 0.358404C9.15421 0.230552 9.31258 0.166626 9.50147 0.166626C9.69051 0.166626 9.8488 0.230552 9.97636 0.358404C10.1041 0.486108 10.1679 0.644404 10.1679 0.833293V2.83329H10.2192C11.1458 2.83329 11.9486 3.1344 12.6277 3.73663C13.3069 4.339 13.6466 5.08914 13.6466 5.98707C13.6466 6.20751 13.5721 6.39226 13.423 6.54129C13.2738 6.69033 13.0891 6.76485 12.8688 6.76485H6.14236ZM6.84813 5.43151H12.1544C12.0541 5.03048 11.8207 4.71937 11.4544 4.49818C11.0878 4.27714 10.6761 4.16663 10.2192 4.16663H8.79191C8.33487 4.16663 7.92176 4.27574 7.55258 4.49396C7.18324 4.71218 6.94843 5.0247 6.84813 5.43151ZM16.681 17.0555C16.5281 17.0555 16.4015 17.0054 16.3012 16.9053C16.2009 16.8053 16.1508 16.6787 16.1508 16.5255V14.2777H13.3217V16.5255C13.3217 16.6726 13.2715 16.7977 13.1712 16.9008C13.0709 17.004 12.9473 17.0555 12.8004 17.0555C12.6534 17.0555 12.5284 17.0054 12.4252 16.9051C12.3221 16.8048 12.2706 16.6811 12.2706 16.5342V14.2777H12.1595C11.9681 14.2777 11.8077 14.213 11.6784 14.0835C11.5489 13.9542 11.4841 13.7938 11.4841 13.6024C11.4841 13.1606 11.6415 12.7824 11.9561 12.4677C12.2708 12.1531 12.6491 11.9957 13.091 11.9957H16.8277L17.4517 5.94107C17.4742 5.77574 17.5473 5.63529 17.671 5.51974C17.7949 5.40403 17.9468 5.34618 18.1268 5.34618C18.316 5.35181 18.4767 5.4267 18.6088 5.57085C18.7411 5.715 18.7952 5.88166 18.7712 6.07085L18.0568 13.1837C18.0272 13.4344 17.9354 13.6506 17.7815 13.8324C17.6277 14.0142 17.4374 14.1421 17.2106 14.2162V16.5255C17.2106 16.6787 17.1606 16.8053 17.0606 16.9053C16.9606 17.0054 16.8341 17.0555 16.681 17.0555ZM8.83458 10.0468H4.28769C4.0988 10.0468 3.94043 9.983 3.81258 9.85529C3.68487 9.72744 3.62102 9.569 3.62102 9.37996C3.62102 9.19107 3.68487 9.03277 3.81258 8.90507C3.94043 8.77752 4.0988 8.71374 4.28769 8.71374H14.7148C14.9037 8.71374 15.0621 8.77759 15.1899 8.90529C15.3176 9.03314 15.3815 9.19159 15.3815 9.38063C15.3815 9.56952 15.3176 9.72781 15.1899 9.85552C15.0621 9.98307 14.9037 10.0468 14.7148 10.0468H10.1679V16.3888C10.1679 16.5777 10.104 16.736 9.97613 16.8637C9.84828 16.9916 9.68991 17.0555 9.50102 17.0555C9.31199 17.0555 9.15369 16.9916 9.02613 16.8637C8.89843 16.736 8.83458 16.5777 8.83458 16.3888V10.0468Z" fill="#16406E"/>
</svg>
