<svg width="28" height="30" viewBox="0 0 28 30" fill="none" xmlns="http://www.w3.org/2000/svg">
<path d="M3.5 26.75H9.35594V17.9326C9.35594 17.4846 9.50746 17.109 9.8105 16.8056C10.1138 16.5026 10.4895 16.3511 10.9375 16.3511H17.0625C17.5105 16.3511 17.8862 16.5026 18.1895 16.8056C18.4925 17.109 18.6441 17.4846 18.6441 17.9326V26.75H24.5V11.2691C24.5 11.1795 24.4803 11.0983 24.4409 11.0254C24.4019 10.9525 24.3486 10.8879 24.2812 10.8316L14.3198 3.34376C14.23 3.2653 14.1234 3.22607 14 3.22607C13.8766 3.22607 13.77 3.2653 13.6802 3.34376L3.71875 10.8316C3.65138 10.8879 3.59815 10.9525 3.55906 11.0254C3.51969 11.0983 3.5 11.1795 3.5 11.2691V26.75ZM0.875 26.75V11.2691C0.875 10.7683 0.987 10.2939 1.211 9.84589C1.43529 9.3976 1.74504 9.02849 2.14025 8.73857L12.1021 1.2337C12.6548 0.81195 13.2866 0.601074 13.9974 0.601074C14.7082 0.601074 15.3417 0.81195 15.8979 1.2337L25.8598 8.73857C26.255 9.02849 26.5647 9.3976 26.789 9.84589C27.013 10.2939 27.125 10.7683 27.125 11.2691V26.75C27.125 27.4658 26.8664 28.0822 26.3493 28.5993C25.8322 29.1165 25.2157 29.375 24.5 29.375H17.6011C17.1528 29.375 16.7771 29.2234 16.4741 28.92C16.1707 28.617 16.0191 28.2413 16.0191 27.793V18.9761H11.9809V27.793C11.9809 28.2413 11.8293 28.617 11.5259 28.92C11.2229 29.2234 10.8472 29.375 10.3989 29.375H3.5C2.78425 29.375 2.16781 29.1165 1.65069 28.5993C1.13356 28.0822 0.875 27.4658 0.875 26.75Z" fill="#02060B"/>
</svg>
