<svg width="10" height="17" viewBox="0 0 10 17" fill="none" xmlns="http://www.w3.org/2000/svg">
<path d="M0.841866 16.0555C0.652681 16.0555 0.488311 15.9834 0.348755 15.8393C0.209051 15.6951 0.1512 15.5285 0.1752 15.3393L0.940977 6.80084L0.264089 2.7204C0.201422 2.38662 0.285422 2.00714 0.516089 1.58195C0.746903 1.15692 1.23838 0.944397 1.99053 0.944397C2.78476 0.944397 3.47735 1.20025 4.06831 1.71195C4.65913 2.22366 5.0229 2.8721 5.15964 3.65729L5.55964 6.10684H9.22298C9.41216 6.10684 9.57053 6.17062 9.69809 6.29817C9.82579 6.42588 9.88964 6.58432 9.88964 6.77351C9.88964 6.96269 9.82579 7.12106 9.69809 7.24862C9.57053 7.37632 9.41216 7.44018 9.22298 7.44018H8.26053L8.9632 15.3393C8.98705 15.5285 8.9315 15.6951 8.79653 15.8393C8.66142 15.9834 8.49476 16.0555 8.29653 16.0555C8.12216 16.0555 7.97572 15.9963 7.8572 15.8777C7.73868 15.7592 7.66742 15.6174 7.64342 15.4522L7.54609 14.3291H1.59231L1.49476 15.4522C1.4709 15.6174 1.39972 15.7592 1.2812 15.8777C1.16268 15.9963 1.01624 16.0555 0.841866 16.0555ZM1.95631 6.10684H4.21276L3.84009 3.87773C3.76601 3.41966 3.55379 3.03847 3.20342 2.73417C2.8529 2.42988 2.44861 2.27773 1.99053 2.27773H1.78031C1.71764 2.27773 1.6649 2.30195 1.62209 2.3504C1.57942 2.39884 1.56379 2.4544 1.5752 2.51706L1.95631 6.10684ZM1.71364 12.9957H7.41098L7.22987 10.8846H1.90853L1.71364 12.9957ZM2.0212 9.55129H7.11698L6.91365 7.44018H2.21098L2.0212 9.55129Z" fill="#16406E"/>
</svg>
