<svg width="21" height="20" viewBox="0 0 21 20" fill="none" xmlns="http://www.w3.org/2000/svg">
<path d="M19.18 19.9167C16.9814 19.9167 14.7726 19.4055 12.5536 18.3831C10.3348 17.3607 8.29613 15.9185 6.43763 14.0565C4.57933 12.1943 3.13898 10.1556 2.11659 7.94025C1.0942 5.72514 0.583008 3.51829 0.583008 1.31971C0.583008 0.966403 0.699674 0.672013 0.933008 0.436541C1.16634 0.201069 1.45801 0.083333 1.80801 0.083333H5.61309C5.90767 0.083333 6.16755 0.179486 6.39272 0.371792C6.61788 0.563903 6.76109 0.801319 6.82234 1.08404L7.49113 4.51667C7.53741 4.83517 7.52769 5.10885 7.46197 5.33771C7.39605 5.56657 7.27783 5.75878 7.1073 5.91433L4.41288 8.53729C4.84649 9.3314 5.34194 10.0826 5.89922 10.791C6.4563 11.4992 7.05947 12.1755 7.70872 12.8201C8.34883 13.4604 9.02938 14.055 9.75038 14.604C10.4714 15.1529 11.2499 15.6637 12.0861 16.1364L14.7041 13.4956C14.8866 13.3057 15.1077 13.1725 15.3673 13.096C15.6267 13.0198 15.8963 13.0012 16.1761 13.04L19.4156 13.6998C19.7102 13.7776 19.9506 13.9279 20.1369 14.1507C20.3232 14.3735 20.4163 14.6263 20.4163 14.909V18.6917C20.4163 19.0417 20.2986 19.3333 20.0631 19.5667C19.8277 19.8 19.5333 19.9167 19.18 19.9167ZM3.58484 6.8815L5.66705 4.88913C5.70438 4.85918 5.72869 4.81806 5.73997 4.76575C5.75124 4.71344 5.7494 4.66483 5.73443 4.61992L5.22722 2.01271C5.21224 1.95301 5.18609 1.90819 5.14876 1.87825C5.11142 1.8483 5.06281 1.83333 5.00292 1.83333H2.50801C2.46309 1.83333 2.42566 1.8483 2.39572 1.87825C2.36597 1.90819 2.35109 1.94563 2.35109 1.99054C2.41079 2.78776 2.54126 3.59763 2.74251 4.42013C2.94356 5.24282 3.22434 6.06328 3.58484 6.8815ZM13.7348 16.9641C14.5081 17.3246 15.3147 17.6003 16.1545 17.791C16.9945 17.9816 17.7794 18.0948 18.5091 18.1308C18.5541 18.1308 18.5915 18.1158 18.6214 18.0859C18.6514 18.0559 18.6663 18.0185 18.6663 17.9736V15.5192C18.6663 15.4593 18.6514 15.4107 18.6214 15.3734C18.5915 15.336 18.5467 15.3099 18.487 15.2949L16.037 14.7968C15.992 14.7818 15.9528 14.7799 15.9191 14.7912C15.8855 14.8025 15.8499 14.8268 15.8124 14.8641L13.7348 16.9641Z" fill="currentColor"/>
</svg>
