<svg width="88" height="78" viewBox="0 0 88 78" fill="none" xmlns="http://www.w3.org/2000/svg">
<path d="M11.1987 77.9587C10.4096 77.9587 9.75648 77.7005 9.23933 77.1841C8.72217 76.6684 8.4636 76.0157 8.4636 75.2259V63.3619C7.26506 62.9799 6.26627 62.3203 5.46724 61.383C4.66822 60.4465 4.19231 59.3171 4.03953 57.9948L0.328181 21.3637C0.205195 20.3882 0.496236 19.5215 1.20131 18.7638C1.90637 18.0052 2.76117 17.626 3.76568 17.626C4.66478 17.626 5.44013 17.9285 6.09172 18.5335C6.74332 19.1385 7.1287 19.8733 7.24787 20.738L10.376 51.8692H29.5733C31.852 51.8692 33.8026 52.6804 35.4251 54.3029C37.0476 55.9254 37.8588 57.8756 37.8588 60.1536C37.8588 61.1405 37.525 61.9674 36.8573 62.6343C36.1905 63.3019 35.3636 63.6357 34.3766 63.6357H33.8037V75.2705C33.8037 76.0283 33.552 76.6658 33.0486 77.1829C32.5444 77.7001 31.9066 77.9587 31.1351 77.9587C30.3643 77.9587 29.7131 77.6928 29.1814 77.1612C28.6497 76.6295 28.3839 75.9844 28.3839 75.2259V63.6357H13.9281V75.2259C13.9281 76.0157 13.6703 76.6684 13.1546 77.1841C12.639 77.7005 11.987 77.9587 11.1987 77.9587ZM49.9325 77.9587C48.9577 77.9587 48.1415 77.629 47.4838 76.9698C46.8253 76.3113 46.4961 75.4951 46.4961 74.5212V29.8337C45.4267 28.2822 44.0505 27.0352 42.3677 26.0925C40.6841 25.1491 38.8286 24.6774 36.8012 24.6774C34.9205 24.6774 33.206 25.0842 31.6576 25.8977C30.1092 26.712 28.8002 27.7979 27.7308 29.1553C27.3084 29.5312 26.8267 29.7897 26.2859 29.9311C25.7451 30.0716 25.1928 30.1419 24.629 30.1419C23.3388 30.1419 22.2583 29.6763 21.3875 28.7451C20.5166 27.8139 20.1809 26.7166 20.3803 25.4531C21.4734 18.2138 24.7963 12.1687 30.349 7.31803C35.9017 2.46734 42.4376 0.0419922 49.9565 0.0419922C57.4747 0.0419922 63.9956 2.46734 69.5193 7.31803C75.0422 12.1687 78.3652 18.2138 79.4881 25.4531C79.7348 26.7166 79.409 27.8139 78.5107 28.7451C77.6124 29.6763 76.5219 30.1419 75.2393 30.1419C74.6748 30.1419 74.1225 30.0716 73.5825 29.9311C73.0416 29.7897 72.5596 29.5312 72.1364 29.1553C71.1143 27.7505 69.8172 26.6532 68.2452 25.8633C66.6731 25.0727 64.9616 24.6774 63.1107 24.6774C61.0833 24.6774 59.2282 25.1491 57.5454 26.0925C55.8618 27.0352 54.4703 28.2822 53.3711 29.8337V74.5212C53.3711 75.4951 53.0415 76.3113 52.3822 76.9698C51.7238 77.629 50.9072 77.9587 49.9325 77.9587ZM49.1877 22.6504H50.6921C52.3315 21.1402 54.2263 19.9547 56.3766 19.0938C58.5277 18.2329 60.7961 17.8024 63.1817 17.8024C64.4628 17.8024 65.6804 17.9701 66.8346 18.3054C67.9896 18.64 69.09 19.1041 70.1358 19.6976C68.3674 15.9255 65.6793 12.8524 62.0714 10.4782C58.4636 8.10408 54.4104 6.91699 49.9118 6.91699C45.4141 6.91699 41.3609 8.11133 37.7522 10.5C34.1444 12.8887 31.4708 16.0134 29.7314 19.8741C30.7779 19.2805 31.8783 18.7871 33.0326 18.3937C34.1876 17.9995 35.4056 17.8024 36.6866 17.8024C39.0722 17.8024 41.3402 18.2329 43.4906 19.0938C45.6417 19.9547 47.5407 21.1402 49.1877 22.6504ZM65.4447 77.9587C64.4708 77.9587 63.6546 77.629 62.9961 76.9698C62.3384 76.3113 62.0095 75.4951 62.0095 74.5212V56.0114C62.0095 54.838 62.4064 53.8541 63.2001 53.0597C63.9945 52.266 64.9784 51.8692 66.1517 51.8692H82.8912C84.0775 51.8692 85.0656 52.266 85.8555 53.0597C86.6461 53.8541 87.0414 54.838 87.0414 56.0114V74.5212C87.0414 75.4951 86.7118 76.3113 86.0526 76.9698C85.3933 77.629 84.5767 77.9587 83.6028 77.9587C82.628 77.9587 81.8118 77.629 81.1541 76.9698C80.4957 76.3113 80.1664 75.4951 80.1664 74.5212V58.7442H68.8845V74.5212C68.8845 75.4951 68.5549 76.3113 67.8957 76.9698C67.2364 77.629 66.4195 77.9587 65.4447 77.9587Z" fill="#16406E"/>
</svg>
