<svg width="16" height="24" viewBox="0 0 16 24" fill="none" xmlns="http://www.w3.org/2000/svg">
<path d="M7.99935 23.0827C6.02807 23.0827 4.4172 22.8 3.16672 22.2345C1.91625 21.6693 1.29102 20.9386 1.29102 20.0426C1.29102 19.6882 1.41109 19.3554 1.65122 19.0443C1.89117 18.7332 2.23252 18.4527 2.67527 18.2028C2.88021 18.0683 3.10382 18.0223 3.3461 18.0648C3.58838 18.1074 3.77689 18.2312 3.91164 18.4361C4.0462 18.6411 4.08732 18.8628 4.03502 19.1014C3.98271 19.34 3.85409 19.5266 3.64914 19.6611C3.52197 19.7061 3.40045 19.7622 3.28456 19.8294C3.16847 19.8967 3.09925 19.964 3.07689 20.0313C3.26978 20.3799 3.84378 20.6839 4.79889 20.9433C5.75381 21.2029 6.82063 21.3327 7.99935 21.3327C9.17807 21.3327 10.2449 21.2029 11.1998 20.9433C12.1549 20.6839 12.7289 20.3799 12.9218 20.0313C12.8994 19.964 12.8302 19.8967 12.7141 19.8294C12.5983 19.7622 12.4767 19.7061 12.3496 19.6611C12.1446 19.5266 12.016 19.34 11.9637 19.1014C11.9114 18.8628 11.9525 18.6411 12.0871 18.4361C12.2218 18.2312 12.4103 18.1074 12.6526 18.0648C12.8949 18.0223 13.1185 18.0683 13.3234 18.2028C13.7662 18.4527 14.1075 18.7332 14.3475 19.0443C14.5876 19.3554 14.7077 19.6882 14.7077 20.0426C14.7077 20.9386 14.0824 21.6693 12.832 22.2345C11.5815 22.8 9.97063 23.0827 7.99935 23.0827ZM8.02852 17.3952C9.9609 15.9308 11.4114 14.4804 12.3799 13.0438C13.3484 11.6071 13.8327 10.1805 13.8327 8.76418C13.8327 6.75091 13.2026 5.23122 11.9424 4.20514C10.6822 3.17906 9.36785 2.66602 7.99935 2.66602C6.63824 2.66602 5.32574 3.17906 4.06185 4.20514C2.79796 5.23122 2.16602 6.75091 2.16602 8.76418C2.16602 10.0893 2.64425 11.4624 3.60072 12.8834C4.5572 14.3044 6.03313 15.8083 8.02852 17.3952ZM7.99935 19.0734C7.78838 19.0734 7.5775 19.0364 7.36672 18.9623C7.15575 18.8882 6.96053 18.7809 6.78106 18.6403C4.64372 16.9173 3.0486 15.2362 1.99568 13.5968C0.942571 11.9574 0.416016 10.3466 0.416016 8.76418C0.416016 7.46588 0.645266 6.32838 1.10377 5.35168C1.56227 4.37499 2.15415 3.55716 2.87943 2.89818C3.6049 2.23941 4.41827 1.74435 5.31952 1.41301C6.22057 1.08168 7.11385 0.916016 7.99935 0.916016C8.88485 0.916016 9.77813 1.08168 10.6792 1.41301C11.5804 1.74435 12.3938 2.23941 13.1193 2.89818C13.8445 3.55716 14.4364 4.37499 14.8949 5.35168C15.3534 6.32838 15.5827 7.46588 15.5827 8.76418C15.5827 10.3466 15.0561 11.9574 14.003 13.5968C12.9501 15.2362 11.355 16.9173 9.21764 18.6403C9.03817 18.7809 8.84295 18.8882 8.63197 18.9623C8.4212 19.0364 8.21032 19.0734 7.99935 19.0734ZM7.99935 10.7093C8.58113 10.7093 9.07803 10.5051 9.49006 10.0968C9.90228 9.68847 10.1084 9.18963 10.1084 8.60027C10.1084 8.01849 9.90228 7.52158 9.49006 7.10956C9.07803 6.69733 8.58113 6.49122 7.99935 6.49122C7.42496 6.49122 6.9299 6.69733 6.51418 7.10956C6.09827 7.52158 5.89031 8.01849 5.89031 8.60027C5.89031 9.18963 6.09827 9.68847 6.51418 10.0968C6.9299 10.5051 7.42496 10.7093 7.99935 10.7093Z" fill="white"/>
</svg>
