<svg width="18" height="18" viewBox="0 0 18 18" fill="none" xmlns="http://www.w3.org/2000/svg">
<mask id="mask0_874_7679" style="mask-type:alpha" maskUnits="userSpaceOnUse" x="-6" y="-6" width="30" height="30">
<rect x="-5.4" y="-5.4" width="28.8" height="28.8" fill="#D9D9D9"/>
</mask>
<g mask="url(#mask0_874_7679)">
<path d="M9 13.0938C8.8554 13.0938 8.7208 13.0707 8.5962 13.0245C8.4716 12.9785 8.3531 12.8993 8.2407 12.7869L4.5093 9.0555C4.3309 8.8769 4.2428 8.668 4.245 8.4288C4.2474 8.1896 4.3355 7.9769 4.5093 7.7907C4.6955 7.6047 4.9093 7.5086 5.1507 7.5024C5.3923 7.4962 5.6062 7.5862 5.7924 7.7724L8.1 10.08V0.9C8.1 0.6446 8.1862 0.4308 8.3586 0.2586C8.5308 0.0861998 8.7446 0 9 0C9.2554 0 9.4692 0.0861998 9.6414 0.2586C9.8138 0.4308 9.9 0.6446 9.9 0.9V10.08L12.2076 7.7724C12.3862 7.594 12.5981 7.5059 12.8433 7.5081C13.0887 7.5105 13.3045 7.6047 13.4907 7.7907C13.6645 7.9769 13.7545 8.1877 13.7607 8.4231C13.7669 8.6585 13.6769 8.8693 13.4907 9.0555L9.7593 12.7869C9.6469 12.8993 9.5284 12.9785 9.4038 13.0245C9.2792 13.0707 9.1446 13.0938 9 13.0938ZM2.1693 18C1.5631 18 1.05 17.79 0.63 17.37C0.21 16.95 0 16.4369 0 15.8307V13.4769C0 13.2215 0.0861998 13.0077 0.2586 12.8355C0.4308 12.6631 0.6446 12.5769 0.9 12.5769C1.1554 12.5769 1.3692 12.6631 1.5414 12.8355C1.7138 13.0077 1.8 13.2215 1.8 13.4769V15.8307C1.8 15.9231 1.8385 16.0077 1.9155 16.0845C1.9923 16.1615 2.0769 16.2 2.1693 16.2H15.8307C15.9231 16.2 16.0077 16.1615 16.0845 16.0845C16.1615 16.0077 16.2 15.9231 16.2 15.8307V13.4769C16.2 13.2215 16.2862 13.0077 16.4586 12.8355C16.6308 12.6631 16.8446 12.5769 17.1 12.5769C17.3554 12.5769 17.5692 12.6631 17.7414 12.8355C17.9138 13.0077 18 13.2215 18 13.4769V15.8307C18 16.4369 17.79 16.95 17.37 17.37C16.95 17.79 16.4369 18 15.8307 18H2.1693Z" fill="white"/>
</g>
</svg>
