<svg width="27" height="29" viewBox="0 0 27 29" fill="none" xmlns="http://www.w3.org/2000/svg">
<mask id="mask0_0_60" style="mask-type:alpha" maskUnits="userSpaceOnUse" x="-8" y="-8" width="43" height="44">
<rect x="-7.93687" y="-7.15687" width="42.33" height="42.33" fill="#D9D9D9"/>
</mask>
<g mask="url(#mask0_0_60)">
<path d="M2.64562 26.3544H8.54757V17.4677C8.54757 17.0162 8.70028 16.6376 9.00571 16.3319C9.31142 16.0265 9.69004 15.8737 10.1416 15.8737H16.3147C16.7662 15.8737 17.1448 16.0265 17.4505 16.3319C17.756 16.6376 17.9087 17.0162 17.9087 17.4677V26.3544H23.8106V10.7518C23.8106 10.6616 23.7908 10.5797 23.7511 10.5062C23.7117 10.4327 23.6581 10.3676 23.5902 10.3109L13.5504 2.76424C13.4599 2.68516 13.3525 2.64562 13.2281 2.64562C13.1038 2.64562 12.9963 2.68516 12.9058 2.76424L2.86609 10.3109C2.79819 10.3676 2.74454 10.4327 2.70515 10.5062C2.66547 10.5797 2.64562 10.6616 2.64562 10.7518V26.3544ZM0 26.3544V10.7518C0 10.2471 0.11288 9.76897 0.33864 9.31745C0.564694 8.86564 0.876877 8.49363 1.27519 8.20144L11.3153 0.637597C11.8724 0.212533 12.5091 0 13.2255 0C13.9419 0 14.5803 0.212533 15.1409 0.637597L25.1811 8.20144C25.5794 8.49363 25.8916 8.86564 26.1176 9.31745C26.3434 9.76897 26.4562 10.2471 26.4562 10.7518V26.3544C26.4562 27.0758 26.1957 27.697 25.6745 28.2182C25.1533 28.7394 24.532 29 23.8106 29H16.8575C16.4057 29 16.027 28.8472 15.7216 28.5414C15.4159 28.236 15.263 27.8574 15.263 27.4056V18.5194H11.1932V27.4056C11.1932 27.8574 11.0403 28.236 10.7346 28.5414C10.4292 28.8472 10.0506 29 9.59877 29H2.64562C1.92425 29 1.30297 28.7394 0.781782 28.2182C0.260594 27.697 0 27.0758 0 26.3544Z" fill="#02060B"/>
</g>
</svg>
