<svg width="24" height="24" viewBox="0 0 24 24" fill="none" xmlns="http://www.w3.org/2000/svg">
<g opacity="0.5">
<mask id="mask0_0_252" style="mask-type:alpha" maskUnits="userSpaceOnUse" x="0" y="0" width="24" height="24">
<rect width="24" height="24" fill="#D9D9D9"/>
</mask>
<g mask="url(#mask0_0_252)">
<path d="M18.627 12.7502H4.25C4.03717 12.7502 3.859 12.6784 3.7155 12.5347C3.57183 12.3912 3.5 12.213 3.5 12.0002C3.5 11.7874 3.57183 11.6092 3.7155 11.4657C3.859 11.322 4.03717 11.2502 4.25 11.2502H18.627L16.8193 9.42718C16.6706 9.27835 16.5972 9.10427 16.599 8.90493C16.601 8.7056 16.6795 8.52835 16.8345 8.37318C16.9897 8.22835 17.1679 8.15335 17.3693 8.14818C17.5706 8.14318 17.7437 8.21818 17.8885 8.37318L20.8673 11.3674C21.0481 11.5483 21.1385 11.7592 21.1385 12.0002C21.1385 12.2412 21.0481 12.4521 20.8673 12.6329L17.873 15.6272C17.7345 15.7655 17.5631 15.8364 17.3588 15.8397C17.1543 15.8429 16.9744 15.772 16.8193 15.6272C16.6641 15.472 16.5865 15.2938 16.5865 15.0924C16.5865 14.8913 16.6641 14.7131 16.8193 14.5579L18.627 12.7502Z" fill="#1C1B1F"/>
</g>
</g>
</svg>
