<svg width="210" height="57" viewBox="0 0 210 57" fill="none" xmlns="http://www.w3.org/2000/svg">
<path d="M94.872 38.0915C94.0161 38.3768 93.0174 38.5195 92.0188 38.6621C91.0201 38.8048 90.0215 38.9475 89.3082 38.9475C86.4549 38.9475 84.3149 38.2341 82.8883 36.6648C81.4617 35.0955 80.7483 32.6702 80.7483 29.389V14.6946H77.6097V10.8427H80.7483V2.85353H85.4562V10.8427H95.0147V14.6946H85.4562V27.3917C85.4562 28.8183 85.4562 29.9596 85.4562 30.8156C85.4562 31.6716 85.7416 32.3849 86.1696 33.0982C86.5975 33.8116 87.0255 34.2395 87.7389 34.5249C88.3095 34.8102 89.3082 34.9529 90.5921 34.9529C91.8761 34.9529 92.1614 34.9529 93.0174 34.6675C93.8734 34.3822 94.4441 34.2396 94.872 34.0969H95.1574V38.2341L94.872 38.0915Z" fill="white"/>
<path d="M121.978 38.2339H117.556V22.5409C117.556 21.2569 117.556 20.1156 117.413 18.9743C117.27 17.833 116.985 16.977 116.7 16.4063C116.272 15.693 115.701 15.265 114.988 14.837C114.274 14.5517 113.276 14.2664 112.135 14.2664C110.993 14.2664 109.709 14.5517 108.425 15.265C107.141 15.8357 105.857 16.6917 104.716 17.6903V38.2339H100.293V0H104.716V13.8384C106.143 12.6971 107.569 11.6984 108.996 10.9851C110.423 10.2718 111.992 9.98646 113.561 9.98646C116.414 9.98646 118.554 10.8424 119.981 12.6971C121.408 14.5517 122.264 17.1196 122.264 20.4009V38.2339H121.978Z" fill="white"/>
<path d="M155.219 24.5382C155.219 29.1035 154.078 32.6701 151.653 35.3807C149.228 38.0913 146.089 39.3753 142.094 39.3753C138.1 39.3753 134.961 38.0913 132.536 35.3807C130.111 32.6701 128.969 29.1035 128.969 24.5382C128.969 19.973 130.111 16.4064 132.536 13.6958C134.961 10.9852 138.1 9.70122 142.094 9.70122C146.089 9.70122 149.228 10.9852 151.653 13.6958C154.078 16.4064 155.219 19.973 155.219 24.5382ZM150.226 24.5382C150.226 20.9716 149.513 18.261 148.086 16.4064C146.66 14.6944 144.662 13.6958 142.094 13.6958C139.526 13.6958 137.529 14.5518 136.103 16.4064C134.676 18.1184 133.963 20.829 133.963 24.5382C133.963 28.2475 134.676 30.6728 136.103 32.5274C137.529 34.382 139.526 35.238 142.094 35.238C144.662 35.238 146.66 34.382 148.086 32.5274C149.513 30.6728 150.226 28.1048 150.226 24.5382Z" fill="white"/>
<path d="M185.176 24.5382C185.176 29.1035 184.035 32.6701 181.752 35.3807C179.469 38.0913 176.473 39.3753 172.622 39.3753C168.77 39.3753 165.774 38.0913 163.491 35.3807C161.208 32.6701 160.067 29.1035 160.067 24.5382C160.067 19.973 161.208 16.4064 163.491 13.6958C165.774 10.9852 168.77 9.70122 172.622 9.70122C176.473 9.70122 179.469 10.9852 181.752 13.6958C184.035 16.4064 185.176 19.973 185.176 24.5382ZM180.468 24.5382C180.468 20.9716 179.755 18.261 178.471 16.4064C177.044 14.6944 175.19 13.6958 172.764 13.6958C170.339 13.6958 168.342 14.5518 167.058 16.4064C165.631 18.1184 165.06 20.829 165.06 24.5382C165.06 28.2475 165.774 30.6728 167.058 32.5274C168.484 34.382 170.339 35.238 172.764 35.238C175.19 35.238 177.044 34.382 178.471 32.5274C179.897 30.6728 180.611 28.1048 180.611 24.5382H180.468Z" fill="white"/>
<path d="M209.714 15.4074H209.429C208.716 15.2648 208.002 15.1221 207.432 14.9794C206.719 14.9794 206.005 14.9794 205.149 14.9794C203.723 14.9794 202.296 15.2648 200.869 15.9781C199.443 16.6914 198.159 17.4047 197.017 18.546V38.519H192.309V10.2715H197.017V14.4088C198.872 12.8395 200.584 11.8408 202.011 11.2702C203.437 10.6995 204.864 10.2715 206.433 10.2715C208.002 10.2715 207.86 10.2715 208.288 10.2715C208.716 10.2715 209.144 10.2715 210 10.5569V15.4074H209.714Z" fill="white"/>
<path d="M31.6713 11.2706V24.5383H13.5531V43.3699H0V22.3983C0 16.2638 4.99323 11.4132 10.9851 11.4132H31.5287L31.6713 11.2706Z" fill="white"/>
<path d="M45.5097 11.2706V44.0832C45.5097 50.9311 39.9458 56.495 33.098 56.495H0V43.2272H31.6713V11.2706H45.5097Z" fill="white"/>
<path d="M71.6155 38.3767H67.0502V35.3808C66.6223 35.6661 66.0516 36.0941 65.4809 36.5221C64.7676 37.0927 64.197 37.3781 63.4837 37.8061C62.7703 38.234 61.9144 38.5194 60.9157 38.8047C59.9171 39.09 58.7757 39.2327 57.4918 39.2327C55.0665 39.2327 52.9265 38.3767 51.3572 36.6647C49.6453 34.9528 48.7893 32.8128 48.7893 30.2449C48.7893 27.6769 49.2173 26.393 50.0733 25.109C50.9292 23.825 52.2132 22.8264 53.7825 21.9704C55.4945 21.2571 57.3491 20.6864 59.7744 20.4011C62.057 20.1158 64.625 19.9731 67.1929 19.8304V19.1171C67.1929 18.1185 67.0502 17.1198 66.6223 16.4065C66.1943 15.6932 65.7663 15.1225 65.0529 14.6945C64.3396 14.2665 63.6263 13.9812 62.7703 13.9812C61.9143 13.9812 60.9157 13.8385 59.9171 13.8385C58.9184 13.8385 57.3491 13.9812 55.9225 14.2665C54.4958 14.5519 52.9265 15.1225 51.3572 15.6932H51.0719V10.8426C51.9279 10.5573 53.2119 10.272 54.9238 9.98663C56.6358 9.7013 58.2051 9.55864 59.9171 9.55864C61.629 9.55864 63.4837 9.7013 64.9103 9.98663C66.3369 10.272 67.4782 10.8426 68.6195 11.6986C69.6182 12.4119 70.4742 13.4106 70.9022 14.6945C71.4728 15.9785 71.7582 17.4051 71.7582 19.2598V38.234L71.6155 38.3767ZM67.0502 31.5289V23.6823C65.6236 23.6823 64.0543 23.825 62.1997 24.1103C60.345 24.253 58.7757 24.5383 57.7771 24.8237C56.4931 25.2516 55.3518 25.8223 54.6385 26.6783C53.7825 27.5343 53.4972 28.6756 53.4972 29.9596C53.4972 31.2435 53.9252 32.8128 54.9238 33.5261C55.9225 34.3821 57.3491 34.8101 59.2037 34.8101C61.0584 34.8101 62.1997 34.5248 63.6263 33.8115C64.9103 33.0982 66.1943 32.3848 67.3356 31.5289H67.0502Z" fill="white"/>
<path d="M53.6414 45.2243V47.6495H57.3506V48.3629H53.6414V51.0735H52.7854V44.5109H57.4933V45.2243H53.6414Z" fill="white"/>
<path d="M64.625 51.2161C64.0543 51.2161 63.6263 51.2161 63.1983 50.9308C62.7703 50.7882 62.485 50.5028 62.1997 50.0748C61.9143 49.6468 61.9144 49.2189 61.9144 48.7909V44.5109H62.7703V48.6482C62.7703 49.2188 62.913 49.6468 63.1983 50.0748C63.4836 50.5028 63.9116 50.5028 64.4823 50.5028C65.053 50.5028 65.4809 50.3602 65.9089 50.0748C66.1943 49.7895 66.3369 49.2188 66.3369 48.6482V44.5109H67.1929V48.6482C67.1929 49.2188 67.1929 49.6468 66.9076 50.0748C66.6223 50.5028 66.3369 50.7882 65.9089 50.9308C65.4809 51.0735 65.053 51.2161 64.4823 51.2161H64.625Z" fill="white"/>
<path d="M76.8937 51.0735L75.1817 48.3629H73.1845V51.0735H72.3285V44.5109H75.4671C76.1804 44.5109 76.751 44.6536 77.179 45.0816C77.607 45.3669 77.7497 45.9376 77.7497 46.5082C77.7497 47.0789 77.607 47.3642 77.3217 47.7922C77.0364 48.0775 76.6084 48.3629 76.1804 48.3629L78.035 51.2161H77.0364L76.8937 51.0735ZM76.751 46.3656C76.751 45.9376 76.751 45.6523 76.323 45.5096C76.0377 45.3669 75.7524 45.2243 75.1817 45.2243H73.0418V47.6495H75.1817C75.6097 47.6495 76.0377 47.6496 76.323 47.3642C76.6084 47.0789 76.751 46.7936 76.751 46.3656Z" fill="white"/>
<path d="M86.88 51.0735L83.3134 45.3669V45.7949V46.6509V51.0735H82.4574V44.5109H83.4561L87.0226 50.2175C87.0226 49.6468 87.0226 49.2188 87.0226 48.9335V44.6536H87.8786V51.2161H86.7373L86.88 51.0735Z" fill="white"/>
<path d="M92.8754 51.0735V44.5109H93.7314V51.0735H92.8754Z" fill="white"/>
<path d="M101.436 45.2243V51.0735H100.58V45.2243H98.2973V44.5109H103.719V45.2243H101.436Z" fill="white"/>
<path d="M110.707 51.2161C110.137 51.2161 109.709 51.2161 109.281 50.9308C108.853 50.7882 108.567 50.5028 108.282 50.0748C107.997 49.6468 107.997 49.2189 107.997 48.7909V44.5109H108.853V48.6482C108.853 49.2188 108.995 49.6468 109.281 50.0748C109.566 50.5028 109.994 50.5028 110.565 50.5028C111.135 50.5028 111.563 50.3602 111.991 50.0748C112.277 49.7895 112.419 49.2188 112.419 48.6482V44.5109H113.275V48.6482C113.275 49.2188 113.275 49.6468 112.99 50.0748C112.704 50.5028 112.419 50.7882 111.991 50.9308C111.563 51.0735 111.135 51.2161 110.565 51.2161H110.707Z" fill="white"/>
<path d="M122.976 51.0735L121.264 48.3629H119.267V51.0735H118.411V44.5109H121.549C122.263 44.5109 122.833 44.6536 123.261 45.0816C123.689 45.3669 123.832 45.9376 123.832 46.5082C123.832 47.0789 123.689 47.3642 123.404 47.7922C123.119 48.0775 122.691 48.3629 122.263 48.3629L124.117 51.2161H123.119L122.976 51.0735ZM122.833 46.3656C122.833 45.9376 122.833 45.6523 122.405 45.5096C122.12 45.3669 121.835 45.2243 121.264 45.2243H119.124V47.6495H121.264C121.692 47.6495 122.12 47.6496 122.405 47.3642C122.691 47.0789 122.833 46.7936 122.833 46.3656Z" fill="white"/>
<path d="M128.682 51.0735V44.5109H133.676V45.2243H129.538V47.3642H133.39V48.0775H129.538V50.3602H133.818V51.0735H128.54H128.682Z" fill="white"/>
<path d="M149.082 51.0735L147.37 48.3629H145.372V51.0735H144.516V44.5109H147.655C148.368 44.5109 148.939 44.6536 149.367 45.0816C149.795 45.3669 149.938 45.9376 149.938 46.5082C149.938 47.0789 149.795 47.3642 149.51 47.7922C149.224 48.0775 148.796 48.3629 148.368 48.3629L150.223 51.2161H149.224L149.082 51.0735ZM148.939 46.3656C148.939 45.9376 148.939 45.6523 148.511 45.5096C148.226 45.3669 147.94 45.2243 147.37 45.2243H145.23V47.6495H147.37C147.798 47.6495 148.226 47.6496 148.511 47.3642C148.796 47.0789 148.939 46.7936 148.939 46.3656Z" fill="white"/>
<path d="M154.647 51.0735V44.5109H159.641V45.2243H155.503V47.3642H159.355V48.0775H155.503V50.3602H159.783V51.0735H154.505H154.647Z" fill="white"/>
<path d="M168.771 51.0735L165.204 45.3669V45.7949V46.6509V51.0735H164.348V44.5109H165.347L168.914 50.2175C168.914 49.6468 168.914 49.2188 168.914 48.9335V44.6536H169.77V51.2161H168.628L168.771 51.0735Z" fill="white"/>
<path d="M177.331 45.2243V51.0735H176.475V45.2243H174.192V44.5109H179.613V45.2243H177.331Z" fill="white"/>
<path d="M187.887 51.0735L187.174 49.0762H184.178L183.464 51.0735H182.466L185.176 44.5109H186.175L188.886 51.0735H188.03H187.887ZM185.604 45.0816C185.604 45.5096 185.462 45.7949 185.319 46.2229L184.463 48.3629H186.888L186.032 46.2229C186.032 45.9376 185.89 45.7949 185.747 45.5096V45.0816H185.604Z" fill="white"/>
<path d="M193.022 51.0735V44.5109H193.878V50.3602H197.16V51.0735H192.88H193.022Z" fill="white"/>
<path d="M206.862 49.2189C206.862 49.7896 206.576 50.3602 206.148 50.6456C205.72 50.9309 205.007 51.2162 204.151 51.2162C202.582 51.2162 201.583 50.6456 201.298 49.5043H202.154C202.154 49.7896 202.439 50.0749 202.724 50.2176C203.01 50.3602 203.438 50.5029 204.008 50.5029C204.579 50.5029 205.007 50.5029 205.292 50.2176C205.578 50.0749 205.72 49.7896 205.72 49.3616C205.72 48.9336 205.72 48.9336 205.578 48.7909C205.578 48.7909 205.292 48.5056 205.15 48.5056C205.007 48.5056 204.722 48.363 204.579 48.2203C204.294 48.2203 204.008 48.2203 203.723 48.0776C203.152 48.0776 202.867 47.7923 202.582 47.7923C202.296 47.7923 202.154 47.507 201.868 47.3643C201.726 47.2216 201.583 47.079 201.44 46.7937C201.44 46.651 201.44 46.3657 201.44 46.0803C201.44 45.5097 201.726 45.0817 202.154 44.7964C202.582 44.511 203.152 44.3684 204.008 44.3684C204.864 44.3684 205.292 44.3684 205.72 44.6537C206.148 44.939 206.434 45.2244 206.576 45.795H205.72C205.72 45.6523 205.435 45.367 205.15 45.2244C204.864 45.0817 204.436 44.939 204.008 44.939C203.58 44.939 203.01 44.939 202.724 45.2244C202.439 45.367 202.296 45.6523 202.296 46.0803C202.296 46.5083 202.296 46.5083 202.439 46.651C202.439 46.651 202.724 46.9363 202.867 46.9363C203.01 46.9363 203.438 47.079 204.151 47.2216C204.294 47.2216 204.579 47.2216 204.722 47.3643C204.864 47.3643 205.15 47.3643 205.292 47.507C205.435 47.507 205.72 47.6496 205.863 47.7923C206.006 47.7923 206.148 47.935 206.291 48.0776C206.434 48.2203 206.434 48.363 206.576 48.5056C206.576 48.6483 206.576 48.9336 206.576 49.0763L206.862 49.2189Z" fill="white"/>
</svg>
