<svg width="26" height="26" viewBox="0 0 26 26" fill="none" xmlns="http://www.w3.org/2000/svg">
<path d="M0 0.0975018C0 0.178751 0.95875 1.60875 1.1375 1.7875C1.18625 1.83625 1.6575 2.51875 2.19375 3.33125C2.71375 4.1275 3.20125 4.82625 3.26625 4.875C3.315 4.92375 3.68875 5.46 4.095 6.09375C4.50125 6.71125 5.24875 7.81625 5.7525 8.53125C7.02 10.2863 7.02 10.2863 8.06 11.8625C8.58 12.6263 9.1975 13.5038 9.44125 13.8125L9.88 14.3813L9.555 14.7875C9.37625 15.015 8.82375 15.6488 8.33625 16.2175C7.8325 16.7863 7.28 17.42 7.10125 17.6638C6.9225 17.8913 6.61375 18.2325 6.435 18.4275C6.09375 18.7688 4.9725 20.0688 3.88375 21.3688C3.575 21.7263 3.10375 22.2788 2.81125 22.5875C2.19375 23.27 1.90125 23.6113 1.05625 24.635C0.69875 25.0575 0.30875 25.4963 0.21125 25.61C-0.14625 25.9513 -0.0325 26 1.18625 26C2.29125 26 2.405 25.9675 2.7625 25.545C2.97375 25.3013 3.36375 24.8463 3.64 24.5213C3.91625 24.1963 4.5175 23.5138 4.95625 22.9938C5.41125 22.4738 5.915 21.8888 6.09375 21.71C6.2725 21.515 6.71125 20.995 7.06875 20.5563C7.42625 20.1013 7.865 19.5975 8.04375 19.4025C8.2225 19.2238 8.7425 18.6388 9.18125 18.1188C9.63625 17.5988 10.2212 16.9163 10.4975 16.5913L11.0012 16.0225L11.2125 16.4288C11.3262 16.64 11.4725 16.8513 11.5212 16.9C11.5862 16.9488 12.0575 17.6313 12.5938 18.4438C13.13 19.24 13.6012 19.9388 13.65 19.9875C13.715 20.0363 14.5437 21.2387 15.5187 22.6688C16.4937 24.0988 17.3875 25.3663 17.5012 25.48C17.615 25.5938 17.7125 25.7725 17.7125 25.8538C17.7125 25.935 19.3212 26 21.6125 26C23.7575 26 25.5125 25.9513 25.5125 25.9025C25.5125 25.8213 24.5537 24.3913 24.375 24.2125C24.3262 24.1638 23.855 23.465 23.3187 22.6688C22.7987 21.8563 22.3112 21.1738 22.2462 21.125C22.1975 21.0763 21.8237 20.5238 21.4175 19.9062C21.0112 19.2725 20.2638 18.1838 19.76 17.4688C18.46 15.665 18.4925 15.6975 17.2738 13.8938C16.6887 13 16.0225 12.0575 15.8112 11.8138C15.3075 11.18 15.34 10.9038 16.0225 10.14C16.3475 9.79875 17.2738 8.7425 18.07 7.8C18.8662 6.8575 19.76 5.83375 20.0525 5.525C20.345 5.21625 20.865 4.59875 21.2225 4.16C21.5637 3.72125 22.0025 3.20125 22.1812 3.00625C22.7662 2.38875 24.245 0.66625 24.4887 0.325001C24.7162 0 24.7 0 23.4975 0H22.295L21.58 0.845001C21.2062 1.31625 20.735 1.8525 20.5562 2.0475C20.3775 2.22625 19.8737 2.81125 19.4187 3.33125C18.98 3.85125 18.3462 4.5825 18.0375 4.94C17.7288 5.31375 17.4362 5.63875 17.3875 5.6875C17.3387 5.73625 16.8675 6.2725 16.3312 6.90625C15.795 7.52375 15.2262 8.19 15.0475 8.36875C14.885 8.5475 14.6412 8.85625 14.5112 9.05125C14.2187 9.50625 14.2025 9.49 12.9187 7.55625C12.3825 6.74375 11.8787 6.0125 11.7812 5.915C11.7 5.8175 10.7413 4.43625 9.66875 2.86L7.71875 0H3.8675C1.73875 0 0 0.0487518 0 0.0975018ZM7.75125 3.59125C8.95375 5.31375 9.76625 6.4675 11.3587 8.79125C11.765 9.36 12.1225 9.86375 12.1875 9.9125C12.2525 9.96125 12.5612 10.4 12.8862 10.9038C13.195 11.4238 13.5687 11.96 13.715 12.1225C13.8612 12.3013 14.625 13.3738 15.4212 14.5438C16.2175 15.6975 16.9325 16.7213 17.0138 16.8188C17.095 16.9 17.7288 17.8263 18.4437 18.85C19.1425 19.8738 19.76 20.7513 19.8088 20.8C19.8575 20.8488 20.0525 21.0925 20.2475 21.3688C20.4262 21.6288 20.9137 22.3275 21.3037 22.9125C21.71 23.4975 22.1 24.0663 22.165 24.1638C22.2462 24.3263 21.905 24.375 20.6375 24.375H19.0125L18.4112 23.4325C18.0862 22.9288 17.7775 22.4738 17.7288 22.425C17.68 22.3763 17.3713 21.97 17.0625 21.5312C16.7537 21.0763 16.4125 20.6213 16.2987 20.5075C16.185 20.3938 16.0875 20.2313 16.0875 20.15C16.0875 20.0688 15.99 19.9062 15.8925 19.7925C15.7787 19.6788 15.3887 19.1425 15.0312 18.6063C14.6737 18.07 14.3487 17.5988 14.2837 17.55C14.235 17.5013 13.9587 17.095 13.65 16.6562C13.3412 16.2013 13.065 15.8113 13.0162 15.7625C12.9675 15.7138 12.48 15.015 11.9437 14.2188C11.4075 13.4062 10.8875 12.675 10.79 12.5613C10.6925 12.4638 10.3675 11.9925 10.0587 11.505C9.76625 11.0338 9.47375 10.6113 9.425 10.5625C9.36 10.5138 9.08375 10.1075 8.775 9.66875C8.46625 9.21375 8.19 8.82375 8.14125 8.775C8.07625 8.72625 7.75125 8.255 7.39375 7.71875C7.03625 7.1825 6.71125 6.71125 6.6625 6.6625C6.61375 6.61375 6.175 5.99625 5.6875 5.28125C5.21625 4.56625 4.76125 3.94875 4.7125 3.9C4.5825 3.8025 3.4125 1.96625 3.4125 1.86875C3.4125 1.82 4.11125 1.7875 4.95625 1.7875H6.48375L7.75125 3.59125Z" fill="#16406E"/>
</svg>
