<svg width="25" height="25" viewBox="0 0 25 25" fill="none" xmlns="http://www.w3.org/2000/svg">
<path d="M12.3972 6.44245C8.98993 6.44245 6.24012 9.19231 6.24012 12.5996C6.24012 16.0069 8.98993 18.7568 12.3972 18.7568C15.8044 18.7568 18.5542 16.0069 18.5542 12.5996C18.5542 9.19231 15.8044 6.44245 12.3972 6.44245ZM12.3972 16.6013C10.1937 16.6013 8.39554 14.8031 8.39554 12.5996C8.39554 10.3961 10.1937 8.59791 12.3972 8.59791C14.6006 8.59791 16.3988 10.3961 16.3988 12.5996C16.3988 14.8031 14.6006 16.6013 12.3972 16.6013ZM18.8064 4.75531C18.0109 4.75531 17.3684 5.39774 17.3684 6.19328C17.3684 6.98882 18.0109 7.63125 18.8064 7.63125C19.6019 7.63125 20.2443 6.99182 20.2443 6.19328C20.2446 6.00438 20.2075 5.81728 20.1353 5.64271C20.0632 5.46814 19.9573 5.30953 19.8237 5.17595C19.6901 5.04238 19.5315 4.93647 19.3569 4.86429C19.1824 4.79211 18.9953 4.75507 18.8064 4.75531ZM24.3991 12.5996C24.3991 10.9425 24.4141 9.30038 24.321 7.64626C24.2279 5.72497 23.7897 4.01981 22.3847 2.61486C20.9768 1.20691 19.2747 0.771618 17.3534 0.678555C15.6963 0.585492 14.0543 0.600502 12.4002 0.600502C10.7431 0.600502 9.101 0.585492 7.44691 0.678555C5.52565 0.771618 3.82053 1.20991 2.41561 2.61486C1.00768 4.02282 0.572396 5.72497 0.479335 7.64626C0.386274 9.30338 0.401284 10.9455 0.401284 12.5996C0.401284 14.2537 0.386274 15.8988 0.479335 17.553C0.572396 19.4743 1.01068 21.1794 2.41561 22.5844C3.82353 23.9923 5.52565 24.4276 7.44691 24.5207C9.104 24.6137 10.7461 24.5987 12.4002 24.5987C14.0573 24.5987 15.6993 24.6137 17.3534 24.5207C19.2747 24.4276 20.9798 23.9893 22.3847 22.5844C23.7927 21.1764 24.2279 19.4743 24.321 17.553C24.4171 15.8988 24.3991 14.2567 24.3991 12.5996ZM21.7573 19.6784C21.5382 20.2248 21.274 20.633 20.8507 21.0533C20.4274 21.4766 20.0222 21.7408 19.4758 21.9599C17.8968 22.5874 14.1473 22.4463 12.3972 22.4463C10.647 22.4463 6.89455 22.5874 5.31551 21.9629C4.76915 21.7438 4.36089 21.4796 3.94061 21.0563C3.51733 20.633 3.25316 20.2278 3.03401 19.6814C2.4096 18.0993 2.5507 14.3498 2.5507 12.5996C2.5507 10.8494 2.4096 7.09689 3.03401 5.51783C3.25316 4.97146 3.51733 4.56318 3.94061 4.1429C4.36389 3.72261 4.76915 3.45543 5.31551 3.23628C6.89455 2.61186 10.647 2.75296 12.3972 2.75296C14.1473 2.75296 17.8998 2.61186 19.4788 3.23628C20.0252 3.45543 20.4334 3.71961 20.8537 4.1429C21.277 4.56618 21.5412 4.97146 21.7603 5.51783C22.3847 7.09689 22.2436 10.8494 22.2436 12.5996C22.2436 14.3498 22.3847 18.0993 21.7573 19.6784Z" fill="#16406E"/>
</svg>
