<svg width="99" height="70" viewBox="0 0 99 70" fill="none" xmlns="http://www.w3.org/2000/svg">
<path d="M21.2846 69.6397C17.7066 69.6397 14.669 68.3884 12.1718 65.8859C9.67464 63.3834 8.42607 60.3451 8.42607 56.7708H4.81211C3.63878 56.7708 2.65489 56.374 1.86044 55.5803C1.06676 54.7859 0.669922 53.802 0.669922 52.6287V8.91052C0.669922 6.59517 1.47201 4.63542 3.07617 3.03125C4.68034 1.42708 6.63971 0.625 8.9543 0.625H63.0732C65.3518 0.625 67.3024 1.43625 68.9249 3.05875C70.5474 4.68125 71.3587 6.63184 71.3587 8.91052V18.0772H79.3795C80.6911 18.0772 81.934 18.3705 83.1081 18.9572C84.2814 19.5439 85.2477 20.3551 86.007 21.3909L97.5009 36.7806C97.7774 37.1259 97.9848 37.5056 98.1231 37.9196C98.2606 38.3344 98.3293 38.7832 98.3293 39.2659V52.6287C98.3293 53.802 97.9325 54.7859 97.1388 55.5803C96.3443 56.374 95.3605 56.7708 94.1871 56.7708H90.0449C90.0449 60.3451 88.7925 63.3834 86.2877 65.8859C83.7837 68.3884 80.743 69.6397 77.1658 69.6397C73.5885 69.6397 70.5509 68.3884 68.0529 65.8859C65.5558 63.3834 64.3072 60.3451 64.3072 56.7708H34.1626C34.1626 60.355 32.9106 63.3957 30.4066 65.8928C27.9026 68.3907 24.8619 69.6397 21.2846 69.6397ZM21.2949 62.7647C22.9755 62.7647 24.3944 62.1857 25.5517 61.0276C26.709 59.8703 27.2876 58.4514 27.2876 56.7708C27.2876 55.0903 26.709 53.671 25.5517 52.5129C24.3944 51.3556 22.9755 50.777 21.2949 50.777C19.6144 50.777 18.1951 51.3556 17.037 52.5129C15.8797 53.671 15.3011 55.0903 15.3011 56.7708C15.3011 58.4514 15.8797 59.8703 17.037 61.0276C18.1951 62.1857 19.6144 62.7647 21.2949 62.7647ZM7.54492 49.8958H10.8587C11.8342 48.1977 13.2428 46.7742 15.0845 45.6253C16.927 44.4764 18.9971 43.902 21.2949 43.902C23.5331 43.902 25.588 44.4692 27.4595 45.6035C29.331 46.7379 30.7545 48.1687 31.73 49.8958H64.4837V8.91052C64.4837 8.49879 64.3515 8.16077 64.0872 7.89646C63.8229 7.63216 63.4849 7.5 63.0732 7.5H8.9543C8.60214 7.5 8.27902 7.64705 7.98492 7.94114C7.69159 8.23448 7.54492 8.5576 7.54492 8.91052V49.8958ZM77.1761 62.7647C78.8566 62.7647 80.2756 62.1857 81.4328 61.0276C82.5909 59.8703 83.1699 58.4514 83.1699 56.7708C83.1699 55.0903 82.5909 53.671 81.4328 52.5129C80.2756 51.3556 78.8566 50.777 77.1761 50.777C75.4955 50.777 74.0762 51.3556 72.9182 52.5129C71.7609 53.671 71.1822 55.0903 71.1822 56.7708C71.1822 58.4514 71.7609 59.8703 72.9182 61.0276C74.0762 62.1857 75.4955 62.7647 77.1761 62.7647ZM71.3587 40.7292H91.8955L80.4371 25.5251C80.2905 25.3486 80.1216 25.2089 79.9307 25.1057C79.7397 25.0034 79.5266 24.9522 79.2913 24.9522H71.3587V40.7292Z" fill="#16406E"/>
</svg>
