<svg width="24" height="23" viewBox="0 0 24 23" fill="none" xmlns="http://www.w3.org/2000/svg">
<path d="M2.15103 22.0832C1.56167 22.0832 1.06283 21.8791 0.654492 21.4707C0.246159 21.0624 0.0419922 20.5635 0.0419922 19.9742V6.71472C0.0419922 6.46641 0.125798 6.25845 0.293409 6.09084C0.460826 5.92343 0.668687 5.83972 0.916992 5.83972C1.1653 5.83972 1.37326 5.92343 1.54087 6.09084C1.70828 6.25845 1.79199 6.46641 1.79199 6.71472V19.9742C1.79199 20.079 1.82563 20.165 1.89291 20.2323C1.96019 20.2996 2.04623 20.3332 2.15103 20.3332H17.542C17.7903 20.3332 17.9982 20.417 18.1656 20.5846C18.3332 20.7521 18.417 20.9599 18.417 21.2082C18.417 21.4565 18.3332 21.6644 18.1656 21.8318C17.9982 21.9994 17.7903 22.0832 17.542 22.0832H2.15103ZM22.2087 15.8908V8.07418L15.0964 12.2249C14.7645 12.4164 14.413 12.5122 14.042 12.5122C13.671 12.5122 13.3195 12.4164 12.9876 12.2249L5.87533 8.07418V15.8908C5.87533 15.9956 5.90896 16.0817 5.97624 16.149C6.04352 16.2162 6.12956 16.2499 6.23437 16.2499H21.8496C21.9544 16.2499 22.0405 16.2162 22.1077 16.149C22.175 16.0817 22.2087 15.9956 22.2087 15.8908ZM6.23437 17.9999C5.64501 17.9999 5.14616 17.7957 4.73783 17.3874C4.32949 16.9791 4.12533 16.4802 4.12533 15.8908V6.44551C4.12533 6.08948 4.20087 5.76418 4.35195 5.46959C4.50303 5.17481 4.74463 4.93176 5.07674 4.74043L12.4197 0.41705C12.6247 0.298828 12.8465 0.269273 13.085 0.328384C13.3236 0.387495 13.502 0.519523 13.6202 0.724468C13.7503 0.929218 13.7828 1.1539 13.7177 1.39851C13.6527 1.64312 13.5178 1.82444 13.3128 1.94247L6.10866 6.18068L14.042 10.8473L21.8385 6.24805C22.0777 6.103 22.3181 6.03338 22.5598 6.03922C22.8013 6.04524 23.032 6.11106 23.252 6.23668C23.4717 6.36248 23.6444 6.53038 23.7702 6.74038C23.8959 6.95058 23.9587 7.19101 23.9587 7.46168V15.8908C23.9587 16.4802 23.7545 16.9791 23.3462 17.3874C22.9378 17.7957 22.439 17.9999 21.8496 17.9999H6.23437ZM13.9297 6.45455L17.4568 2.92742C17.6182 2.76604 17.8212 2.6834 18.0658 2.67951C18.3104 2.67581 18.5172 2.75845 18.6862 2.92742C18.8552 3.09659 18.9397 3.30154 18.9397 3.54226C18.9397 3.78298 18.8552 3.98793 18.6862 4.15709L14.6679 8.17509C14.4569 8.38607 14.2109 8.49155 13.9297 8.49155C13.6485 8.49155 13.4026 8.38607 13.1918 8.17509L11.6818 6.66543C11.5202 6.50384 11.4376 6.30075 11.4339 6.05613C11.43 5.81172 11.5127 5.60493 11.6818 5.43576C11.8508 5.26679 12.0556 5.1823 12.2964 5.1823C12.5373 5.1823 12.7422 5.26679 12.9112 5.43576L13.9297 6.45455ZM6.23437 16.2499H5.87533H22.2087H6.23437Z" fill="white"/>
</svg>
