<svg width="91" height="75" viewBox="0 0 91 75" fill="none" xmlns="http://www.w3.org/2000/svg">
<path opacity="0.1" d="M51.9531 57.7754L52.335 57.6826C58.1842 56.2648 62.7202 53.6159 65.9775 49.7559L65.9844 49.7471C69.1356 46.1825 71.1114 41.7924 71.9014 36.5566H57.5156V0.5H90.5V23.9209L90.4902 25.1523C90.2981 37.8047 87.1279 48.2923 80.9443 56.5801L80.9434 56.5811L80.3184 57.3916C73.7738 65.6717 64.5051 71.0322 52.5537 73.4902L51.9531 73.6133V57.7754ZM0.5 57.7754L0.881836 57.6826C6.73106 56.2648 11.2671 53.6159 14.5244 49.7559L14.5312 49.7471C17.6825 46.1825 19.6583 41.7924 20.4482 36.5566H6.0625V0.5H39.0469V23.9209C39.0469 37.1254 35.8742 48.025 29.4912 56.5801L29.4902 56.5811C22.916 65.3228 13.4375 70.9529 1.10059 73.4902L0.5 73.6133V57.7754Z" stroke="#16406E"/>
</svg>
