<svg width="26" height="26" viewBox="0 0 26 26" fill="none" xmlns="http://www.w3.org/2000/svg">
<path d="M0.244141 0.0975018C0.244141 0.178751 1.20289 1.60875 1.38164 1.7875C1.43039 1.83625 1.90164 2.51875 2.43789 3.33125C2.95789 4.1275 3.44539 4.82625 3.51039 4.875C3.55914 4.92375 3.93289 5.46 4.33914 6.09375C4.74539 6.71125 5.49289 7.81625 5.99664 8.53125C7.26414 10.2863 7.26414 10.2863 8.30414 11.8625C8.82414 12.6263 9.44164 13.5038 9.68539 13.8125L10.1241 14.3813L9.79914 14.7875C9.62039 15.015 9.06789 15.6488 8.58039 16.2175C8.07664 16.7863 7.52414 17.42 7.34539 17.6638C7.16664 17.8913 6.85789 18.2325 6.67914 18.4275C6.33789 18.7688 5.21664 20.0688 4.12789 21.3688C3.81914 21.7263 3.34789 22.2788 3.05539 22.5875C2.43789 23.27 2.14539 23.6113 1.30039 24.635C0.942891 25.0575 0.552891 25.4963 0.455391 25.61C0.0978906 25.9513 0.211641 26 1.43039 26C2.53539 26 2.64914 25.9675 3.00664 25.545C3.21789 25.3013 3.60789 24.8463 3.88414 24.5213C4.16039 24.1963 4.76164 23.5138 5.20039 22.9938C5.65539 22.4738 6.15914 21.8888 6.33789 21.71C6.51664 21.515 6.95539 20.995 7.31289 20.5563C7.67039 20.1013 8.10914 19.5975 8.28789 19.4025C8.46664 19.2238 8.98664 18.6388 9.42539 18.1188C9.88039 17.5988 10.4654 16.9163 10.7416 16.5913L11.2454 16.0225L11.4566 16.4288C11.5704 16.64 11.7166 16.8513 11.7654 16.9C11.8304 16.9488 12.3016 17.6313 12.8379 18.4438C13.3741 19.24 13.8454 19.9388 13.8941 19.9875C13.9591 20.0363 14.7879 21.2387 15.7629 22.6688C16.7379 24.0988 17.6316 25.3663 17.7454 25.48C17.8591 25.5938 17.9566 25.7725 17.9566 25.8538C17.9566 25.935 19.5654 26 21.8566 26C24.0016 26 25.7566 25.9513 25.7566 25.9025C25.7566 25.8213 24.7979 24.3913 24.6191 24.2125C24.5704 24.1638 24.0991 23.465 23.5629 22.6688C23.0429 21.8563 22.5554 21.1738 22.4904 21.125C22.4416 21.0763 22.0679 20.5238 21.6616 19.9062C21.2554 19.2725 20.5079 18.1838 20.0041 17.4688C18.7041 15.665 18.7366 15.6975 17.5179 13.8938C16.9329 13 16.2666 12.0575 16.0554 11.8138C15.5516 11.18 15.5841 10.9038 16.2666 10.14C16.5916 9.79875 17.5179 8.7425 18.3141 7.8C19.1104 6.8575 20.0041 5.83375 20.2966 5.525C20.5891 5.21625 21.1091 4.59875 21.4666 4.16C21.8079 3.72125 22.2466 3.20125 22.4254 3.00625C23.0104 2.38875 24.4891 0.66625 24.7329 0.325001C24.9604 0 24.9441 0 23.7416 0H22.5391L21.8241 0.845001C21.4504 1.31625 20.9791 1.8525 20.8004 2.0475C20.6216 2.22625 20.1179 2.81125 19.6629 3.33125C19.2241 3.85125 18.5904 4.5825 18.2816 4.94C17.9729 5.31375 17.6804 5.63875 17.6316 5.6875C17.5829 5.73625 17.1116 6.2725 16.5754 6.90625C16.0391 7.52375 15.4704 8.19 15.2916 8.36875C15.1291 8.5475 14.8854 8.85625 14.7554 9.05125C14.4629 9.50625 14.4466 9.49 13.1629 7.55625C12.6266 6.74375 12.1229 6.0125 12.0254 5.915C11.9441 5.8175 10.9854 4.43625 9.91289 2.86L7.96289 0H4.11164C1.98289 0 0.244141 0.0487518 0.244141 0.0975018ZM7.99539 3.59125C9.19789 5.31375 10.0104 6.4675 11.6029 8.79125C12.0091 9.36 12.3666 9.86375 12.4316 9.9125C12.4966 9.96125 12.8054 10.4 13.1304 10.9038C13.4391 11.4238 13.8129 11.96 13.9591 12.1225C14.1054 12.3013 14.8691 13.3738 15.6654 14.5438C16.4616 15.6975 17.1766 16.7213 17.2579 16.8188C17.3391 16.9 17.9729 17.8263 18.6879 18.85C19.3866 19.8738 20.0041 20.7513 20.0529 20.8C20.1016 20.8488 20.2966 21.0925 20.4916 21.3688C20.6704 21.6288 21.1579 22.3275 21.5479 22.9125C21.9541 23.4975 22.3441 24.0663 22.4091 24.1638C22.4904 24.3263 22.1491 24.375 20.8816 24.375H19.2566L18.6554 23.4325C18.3304 22.9288 18.0216 22.4738 17.9729 22.425C17.9241 22.3763 17.6154 21.97 17.3066 21.5312C16.9979 21.0763 16.6566 20.6213 16.5429 20.5075C16.4291 20.3938 16.3316 20.2313 16.3316 20.15C16.3316 20.0688 16.2341 19.9062 16.1366 19.7925C16.0229 19.6788 15.6329 19.1425 15.2754 18.6063C14.9179 18.07 14.5929 17.5988 14.5279 17.55C14.4791 17.5013 14.2029 17.095 13.8941 16.6562C13.5854 16.2013 13.3091 15.8113 13.2604 15.7625C13.2116 15.7138 12.7241 15.015 12.1879 14.2188C11.6516 13.4062 11.1316 12.675 11.0341 12.5613C10.9366 12.4638 10.6116 11.9925 10.3029 11.505C10.0104 11.0338 9.71789 10.6113 9.66914 10.5625C9.60414 10.5138 9.32789 10.1075 9.01914 9.66875C8.71039 9.21375 8.43414 8.82375 8.38539 8.775C8.32039 8.72625 7.99539 8.255 7.63789 7.71875C7.28039 7.1825 6.95539 6.71125 6.90664 6.6625C6.85789 6.61375 6.41914 5.99625 5.93164 5.28125C5.46039 4.56625 5.00539 3.94875 4.95664 3.9C4.82664 3.8025 3.65664 1.96625 3.65664 1.86875C3.65664 1.82 4.35539 1.7875 5.20039 1.7875H6.72789L7.99539 3.59125Z" fill="#16406E"/>
</svg>
