<svg width="19" height="19" viewBox="0 0 19 19" fill="none" xmlns="http://www.w3.org/2000/svg">
<path d="M7.1272 9.33272C6.5766 9.33272 6.119 9.12812 5.7544 8.71892C5.3898 8.30972 5.2459 7.82972 5.3227 7.27892L5.7013 4.37372C5.8381 3.37972 6.2927 2.55772 7.0651 1.90772C7.8373 1.25772 8.7365 0.932716 9.7627 0.932716C10.7889 0.932716 11.6881 1.25772 12.4603 1.90772C13.2327 2.55772 13.6873 3.37972 13.8241 4.37372L14.2027 7.27892C14.2795 7.82972 14.1356 8.30972 13.771 8.71892C13.4064 9.12812 12.9488 9.33272 12.3982 9.33272H7.1272ZM7.0927 7.53272H12.4327L12.0427 4.65272C11.9627 4.09272 11.7077 3.63272 11.2777 3.27272C10.8477 2.91272 10.3427 2.73272 9.7627 2.73272C9.1827 2.73272 8.6777 2.91272 8.2477 3.27272C7.8177 3.63272 7.5627 4.09272 7.4827 4.65272L7.0927 7.53272ZM0.762695 16.6482V15.8034C0.762695 15.2158 0.922296 14.6716 1.2415 14.1708C1.5607 13.67 1.9873 13.285 2.5213 13.0158C3.7073 12.4344 4.9038 11.9983 6.1108 11.7075C7.3178 11.4167 8.5351 11.2713 9.7627 11.2713C10.9903 11.2713 12.2076 11.4167 13.4146 11.7075C14.6216 11.9983 15.8181 12.4344 17.0041 13.0158C17.5381 13.285 17.9647 13.67 18.2839 14.1708C18.6031 14.6716 18.7627 15.2158 18.7627 15.8034V16.6482C18.7627 17.1542 18.5854 17.5846 18.2308 17.9394C17.8762 18.294 17.4458 18.4713 16.9396 18.4713H2.5858C2.0796 18.4713 1.6492 18.294 1.2946 17.9394C0.939995 17.5846 0.762695 17.1542 0.762695 16.6482ZM2.5627 16.6713H16.9627V15.8034C16.9627 15.5604 16.8923 15.3354 16.7515 15.1284C16.6107 14.9216 16.4196 14.7528 16.1782 14.622C15.1442 14.1128 14.0907 13.727 13.0177 13.4646C11.9447 13.2024 10.8597 13.0713 9.7627 13.0713C8.6657 13.0713 7.5807 13.2024 6.5077 13.4646C5.4347 13.727 4.3812 14.1128 3.3472 14.622C3.1058 14.7528 2.9147 14.9216 2.7739 15.1284C2.6331 15.3354 2.5627 15.5604 2.5627 15.8034V16.6713Z" fill="#02060B"/>
</svg>
