<svg width="19" height="18" viewBox="0 0 19 18" fill="none" xmlns="http://www.w3.org/2000/svg">
<path d="M1.7729 17.0854C1.32387 17.0854 0.943793 16.9299 0.632682 16.6188C0.321571 16.3077 0.166016 15.9277 0.166016 15.4788V7.1881C0.166016 6.99891 0.229868 6.84054 0.357571 6.71298C0.485127 6.58528 0.643497 6.52143 0.832682 6.52143C1.02187 6.52143 1.18024 6.58528 1.30779 6.71298C1.4355 6.84054 1.49935 6.99891 1.49935 7.1881V15.4788C1.49935 15.5471 1.52787 15.6097 1.5849 15.6668C1.64179 15.7237 1.70446 15.7521 1.7729 15.7521H15.2771C15.4663 15.7521 15.6247 15.8159 15.7522 15.9437C15.8799 16.0714 15.9438 16.2297 15.9438 16.4188C15.9438 16.6079 15.8799 16.7664 15.7522 16.8941C15.6247 17.0217 15.4663 17.0854 15.2771 17.0854H1.7729ZM4.88402 13.9743C4.43498 13.9743 4.0549 13.8188 3.74379 13.5079C3.43268 13.1968 3.27713 12.8167 3.27713 12.3677V4.11121C3.27713 3.88217 3.35379 3.69098 3.50713 3.53765C3.66031 3.38447 3.85142 3.30787 4.08046 3.30787H7.85824V1.7181C7.85824 1.26906 8.01379 0.888984 8.32491 0.577873C8.63602 0.266762 9.01609 0.111206 9.46513 0.111206H12.6447C13.0936 0.111206 13.4736 0.266762 13.7847 0.577873C14.0958 0.888984 14.2514 1.26906 14.2514 1.7181V3.30787H18.0291C18.2583 3.30787 18.4495 3.38447 18.6027 3.53765C18.756 3.69098 18.8327 3.88217 18.8327 4.11121V12.3677C18.8327 12.8167 18.6771 13.1968 18.366 13.5079C18.0549 13.8188 17.6748 13.9743 17.2258 13.9743H4.88402ZM4.88402 12.6412H17.2258C17.2942 12.6412 17.3569 12.6127 17.4138 12.5557C17.4708 12.4986 17.4993 12.4359 17.4993 12.3677V4.64121H4.61046V12.3677C4.61046 12.4359 4.63891 12.4986 4.69579 12.5557C4.75283 12.6127 4.81557 12.6412 4.88402 12.6412ZM9.19157 3.30787H12.9182V1.7181C12.9182 1.64965 12.8897 1.58698 12.8327 1.53009C12.7756 1.47306 12.713 1.44454 12.6447 1.44454H9.46513C9.39683 1.44454 9.33416 1.47306 9.27713 1.53009C9.22009 1.58698 9.19157 1.64965 9.19157 1.7181V3.30787Z" fill="#16406E"/>
</svg>
