<svg width="21" height="16" viewBox="0 0 21 16" fill="none" xmlns="http://www.w3.org/2000/svg">
<path d="M0.944336 14.4445V6.22229C0.944336 6.0334 1.00826 5.87511 1.13611 5.7474C1.26397 5.61955 1.42234 5.55562 1.61122 5.55562C1.80026 5.55562 1.95856 5.61955 2.08611 5.7474C2.21382 5.87511 2.27767 6.0334 2.27767 6.22229V7.3334H4.49989V0.888957C4.49989 0.700068 4.56382 0.541772 4.69167 0.414068C4.81952 0.286216 4.97789 0.22229 5.16678 0.22229C5.35582 0.22229 5.51411 0.286216 5.64167 0.414068C5.76937 0.541772 5.83323 0.700068 5.83323 0.888957V2.00007H8.05545V0.888957C8.05545 0.700068 8.11937 0.541772 8.24723 0.414068C8.37508 0.286216 8.53345 0.22229 8.72234 0.22229C8.91137 0.22229 9.06967 0.286216 9.19723 0.414068C9.32493 0.541772 9.38878 0.700068 9.38878 0.888957V2.00007H11.611V0.888957C11.611 0.700068 11.6749 0.541772 11.8028 0.414068C11.9306 0.286216 12.089 0.22229 12.2779 0.22229C12.4669 0.22229 12.6252 0.286216 12.7528 0.414068C12.8805 0.541772 12.9443 0.700068 12.9443 0.888957V2.00007H15.1666V0.888957C15.1666 0.700068 15.2305 0.541772 15.3583 0.414068C15.4862 0.286216 15.6446 0.22229 15.8334 0.22229C16.0225 0.22229 16.1808 0.286216 16.3083 0.414068C16.436 0.541772 16.4999 0.700068 16.4999 0.888957V7.3334H18.7221V6.22229C18.7221 6.0334 18.786 5.87511 18.9139 5.7474C19.0417 5.61955 19.2001 5.55562 19.389 5.55562C19.578 5.55562 19.7363 5.61955 19.8639 5.7474C19.9916 5.87511 20.0554 6.0334 20.0554 6.22229V14.4445C20.0554 14.8081 19.9241 15.1212 19.6614 15.3838C19.3988 15.6465 19.0857 15.7778 18.7221 15.7778H13.3032C13.0757 15.7778 12.8849 15.7009 12.7308 15.547C12.5769 15.3929 12.4999 15.2021 12.4999 14.9745V13.3334C12.4999 12.7761 12.3059 12.3034 11.9179 11.9154C11.5299 11.5274 11.0572 11.3334 10.4999 11.3334C9.94256 11.3334 9.46989 11.5274 9.08189 11.9154C8.69389 12.3034 8.49989 12.7761 8.49989 13.3334V14.9703C8.49989 15.2021 8.42293 15.3947 8.269 15.5478C8.11493 15.7012 7.92411 15.7778 7.69656 15.7778H2.27767C1.91411 15.7778 1.601 15.6465 1.33834 15.3838C1.07567 15.1212 0.944336 14.8081 0.944336 14.4445ZM2.27767 14.4445H7.16656V13.3334C7.16656 12.4127 7.49189 11.6269 8.14256 10.9761C8.79337 10.3254 9.57915 10.0001 10.4999 10.0001C11.4206 10.0001 12.2064 10.3254 12.8572 10.9761C13.5079 11.6269 13.8332 12.4127 13.8332 13.3334V14.4445H18.7221V8.66673H15.9699C15.7423 8.66673 15.5515 8.58977 15.3974 8.43585C15.2435 8.28177 15.1666 8.09096 15.1666 7.8634V3.3334H5.83323V7.8634C5.83323 8.09096 5.75626 8.28177 5.60234 8.43585C5.44826 8.58977 5.25745 8.66673 5.02989 8.66673H2.27767V14.4445ZM8.26056 7.77785H9.19211C9.25774 7.77785 9.30693 7.75933 9.33967 7.72229C9.37241 7.68525 9.38878 7.6354 9.38878 7.57273V6.13674C9.38878 5.94785 9.32485 5.78955 9.197 5.66185C9.06915 5.53399 8.91078 5.47007 8.72189 5.47007C8.53286 5.47007 8.37456 5.53399 8.247 5.66185C8.1193 5.78955 8.05545 5.94785 8.05545 6.13674V7.57273C8.05545 7.6354 8.07397 7.68525 8.111 7.72229C8.14804 7.75933 8.19789 7.77785 8.26056 7.77785ZM11.8161 7.77785H12.7477C12.8133 7.77785 12.8625 7.75933 12.8952 7.72229C12.928 7.68525 12.9443 7.6354 12.9443 7.57273V6.13674C12.9443 5.94785 12.8804 5.78955 12.7526 5.66185C12.6247 5.53399 12.4663 5.47007 12.2774 5.47007C12.0884 5.47007 11.9301 5.53399 11.8026 5.66185C11.6749 5.78955 11.611 5.94785 11.611 6.13674V7.57273C11.611 7.6354 11.6295 7.68525 11.6666 7.72229C11.7036 7.75933 11.7534 7.77785 11.8161 7.77785Z" fill="#16406E"/>
</svg>
