<svg width="18" height="17" viewBox="0 0 18 17" fill="none" xmlns="http://www.w3.org/2000/svg">
<path d="M2.51868 14.9556L8.78535 12.7334L4.7409 8.68895L2.51868 14.9556ZM17.6929 4.80006C17.588 4.91058 17.4652 4.96584 17.3245 4.96584C17.1837 4.96584 17.061 4.91347 16.9562 4.80873L16.898 4.75051C16.6564 4.50888 16.363 4.38806 16.0178 4.38806C15.6725 4.38806 15.379 4.50888 15.1373 4.75051L10.6347 9.25317C10.5299 9.35791 10.4072 9.41169 10.2665 9.41451C10.1257 9.41747 10.0001 9.36369 9.88957 9.25317C9.77905 9.14251 9.72379 9.01828 9.72379 8.88051C9.72379 8.74258 9.77905 8.61836 9.88957 8.50784L14.392 4.00517C14.8376 3.55969 15.3767 3.33695 16.0091 3.33695C16.6416 3.33695 17.1806 3.55969 17.6262 4.00517L17.6929 4.07184C17.7978 4.17673 17.8502 4.29814 17.8502 4.43606C17.8502 4.57384 17.7978 4.69517 17.6929 4.80006ZM6.61424 2.24451C6.72476 2.13399 6.84898 2.07873 6.9869 2.07873C7.12483 2.07873 7.24905 2.13399 7.35957 2.24451L7.54757 2.43251C8.02165 2.90658 8.25868 3.47525 8.25868 4.13851C8.25868 4.80176 8.02165 5.37043 7.54757 5.84451L7.3869 6.00517C7.28216 6.11006 7.15942 6.16391 7.01868 6.16673C6.87794 6.16954 6.75224 6.11569 6.64157 6.00517C6.53105 5.89465 6.47579 5.77043 6.47579 5.63251C6.47579 5.49473 6.53105 5.37051 6.64157 5.25984L6.80246 5.09917C7.06676 4.83488 7.1989 4.51465 7.1989 4.13851C7.1989 3.76251 7.06676 3.44228 6.80246 3.17784L6.61424 2.98984C6.5095 2.88495 6.45565 2.76214 6.45268 2.62139C6.44987 2.48065 6.50372 2.35502 6.61424 2.24451ZM10.0433 0.706061C10.1539 0.595543 10.2781 0.540283 10.416 0.540283C10.5539 0.540283 10.6782 0.595543 10.7887 0.706061L11.7356 1.65317C12.187 2.10443 12.4127 2.64628 12.4127 3.27873C12.4127 3.91117 12.187 4.45302 11.7356 4.90428L9.0109 7.62917C8.90602 7.73406 8.7832 7.78791 8.64246 7.79073C8.50172 7.79354 8.37609 7.73969 8.26557 7.62917C8.15505 7.51865 8.09979 7.39443 8.09979 7.25651C8.09979 7.11858 8.15505 6.99436 8.26557 6.88384L10.9905 4.15917C11.2319 3.91754 11.3527 3.62406 11.3527 3.27873C11.3527 2.93339 11.2319 2.63991 10.9905 2.39828L10.0433 1.45139C9.93846 1.34651 9.88461 1.22369 9.88179 1.08295C9.87898 0.942209 9.93283 0.81658 10.0433 0.706061ZM16.368 10.877C16.2575 10.9875 16.1333 11.0427 15.9953 11.0427C15.8576 11.0427 15.7334 10.9875 15.6229 10.877L14.9322 10.1865C14.6622 9.91628 14.3316 9.78117 13.9407 9.78117C13.5499 9.78117 13.2194 9.91628 12.9493 10.1865L12.2587 10.877C12.1538 10.9818 12.031 11.0357 11.8902 11.0385C11.7495 11.0413 11.6239 10.9875 11.5133 10.877C11.4028 10.7664 11.3476 10.6422 11.3476 10.5043C11.3476 10.3665 11.4028 10.2423 11.5133 10.1316L12.204 9.44117C12.6837 8.96132 13.2626 8.72139 13.9407 8.72139C14.6188 8.72139 15.1977 8.96132 15.6776 9.44117L16.368 10.1316C16.4729 10.2365 16.5268 10.3593 16.5296 10.5001C16.5324 10.6408 16.4785 10.7664 16.368 10.877ZM0.882682 15.5469L3.79379 7.45317C3.86224 7.27762 3.96565 7.14369 4.10402 7.05139C4.24253 6.9591 4.39216 6.91295 4.5529 6.91295C4.66002 6.91295 4.75972 6.93088 4.85202 6.96673C4.94431 7.00273 5.03202 7.06228 5.11513 7.14539L10.3289 12.3589C10.412 12.4422 10.4715 12.53 10.5073 12.6223C10.5433 12.7146 10.5613 12.8143 10.5613 12.9214C10.5613 13.0821 10.5152 13.2317 10.4229 13.3701C10.3306 13.5086 10.1967 13.612 10.0211 13.6803L1.92713 16.5914C1.76653 16.6541 1.61187 16.6638 1.46313 16.6205C1.31439 16.5772 1.18646 16.5021 1.07935 16.3949C0.972238 16.2878 0.897052 16.1599 0.853793 16.0112C0.810386 15.8624 0.820015 15.7077 0.882682 15.5469Z" fill="#16406E"/>
</svg>
