<svg width="17" height="17" viewBox="0 0 17 17" fill="none" xmlns="http://www.w3.org/2000/svg">
<path d="M2.27842 16.1922C2.08939 16.1922 1.93109 16.1283 1.80353 16.0006C1.67583 15.8728 1.61198 15.7144 1.61198 15.5255V12.9102C1.61198 12.4683 1.76931 12.09 2.08398 11.7753C2.39865 11.4606 2.77694 11.3033 3.21887 11.3033H13.7829C14.2248 11.3033 14.6031 11.4606 14.9178 11.7753C15.2324 12.09 15.3898 12.4683 15.3898 12.9102V15.5255C15.3898 15.7144 15.3258 15.8728 15.198 16.0006C15.0701 16.1283 14.9118 16.1922 14.7229 16.1922C14.5338 16.1922 14.3755 16.1283 14.248 16.0006C14.1203 15.8728 14.0564 15.7144 14.0564 15.5255V12.9102C14.0564 12.8305 14.0308 12.7649 13.9795 12.7135C13.9283 12.6623 13.8627 12.6366 13.7829 12.6366H3.21887C3.13902 12.6366 3.07346 12.6623 3.0222 12.7135C2.97094 12.7649 2.94531 12.8305 2.94531 12.9102V15.5255C2.94531 15.7144 2.88139 15.8728 2.75353 16.0006C2.62568 16.1283 2.46731 16.1922 2.27842 16.1922ZM2.05753 10.124C1.74909 10.124 1.48665 10.016 1.2702 9.80018C1.05361 9.58433 0.945312 9.32218 0.945312 9.01374C0.945312 8.70544 1.05324 8.443 1.26909 8.2264C1.48494 8.00996 1.74709 7.90174 2.05553 7.90174C2.36383 7.90174 2.6262 8.00966 2.84265 8.22551C3.05924 8.44137 3.16753 8.70344 3.16753 9.01174C3.16753 9.32018 3.05961 9.58263 2.84376 9.79907C2.6279 10.0157 2.36583 10.124 2.05753 10.124ZM4.39842 10.0726V2.46574C4.39842 2.02396 4.55576 1.64574 4.87042 1.33107C5.18509 1.0164 5.56331 0.85907 6.00509 0.85907H10.9966C11.4384 0.85907 11.8166 1.0164 12.1313 1.33107C12.446 1.64574 12.6033 2.02396 12.6033 2.46574V10.0726H4.39842ZM14.9462 10.124C14.6379 10.124 14.3755 10.016 14.1591 9.80018C13.9425 9.58433 13.8342 9.32218 13.8342 9.01374C13.8342 8.70544 13.9421 8.443 14.158 8.2264C14.3738 8.00996 14.6359 7.90174 14.9442 7.90174C15.2526 7.90174 15.5151 8.00966 15.7315 8.22551C15.9481 8.44137 16.0564 8.70344 16.0564 9.01174C16.0564 9.32018 15.9485 9.58263 15.7326 9.79907C15.5168 10.0157 15.2546 10.124 14.9462 10.124ZM5.73153 8.73929H11.2702V2.46574C11.2702 2.38603 11.2445 2.32055 11.1931 2.26929C11.1418 2.21789 11.0763 2.19218 10.9966 2.19218H6.00509C5.92539 2.19218 5.85991 2.21789 5.80865 2.26929C5.75724 2.32055 5.73153 2.38603 5.73153 2.46574V8.73929Z" fill="#16406E"/>
</svg>
