<svg width="16" height="15" viewBox="0 0 16 15" fill="none" xmlns="http://www.w3.org/2000/svg">
<path d="M7.38391 14.7576C7.13258 14.7576 6.92233 14.6755 6.75316 14.5112C6.58383 14.3472 6.49916 14.1433 6.49916 13.8996V8.28676L0.901165 1.39076C0.708831 1.14204 0.680914 0.883451 0.817414 0.615006C0.954081 0.3464 1.18458 0.212097 1.50891 0.212097H14.4894C14.8137 0.212097 15.0442 0.3464 15.1809 0.615006C15.3174 0.883451 15.2895 1.14204 15.0972 1.39076L9.49916 8.28676V13.8996C9.49916 14.1433 9.4145 14.3472 9.24517 14.5112C9.076 14.6755 8.86575 14.7576 8.61441 14.7576H7.38391ZM7.99916 7.77573L12.9492 1.66664H3.04916L7.99916 7.77573Z" fill="#02060B"/>
</svg>
