<svg width="16" height="16" viewBox="0 0 16 16" fill="none" xmlns="http://www.w3.org/2000/svg">
<path d="M3.31611 15.5556H2.05122C1.60219 15.5556 1.22211 15.4 0.911003 15.0889C0.599892 14.7778 0.444336 14.3977 0.444336 13.9487V8.00001C0.444336 6.95157 0.642632 5.96927 1.03922 5.05313C1.43582 4.13683 1.97485 3.33794 2.65634 2.65646C3.33782 1.97498 4.13671 1.43594 5.053 1.03935C5.96915 0.642755 6.95145 0.444458 7.99989 0.444458C9.04834 0.444458 10.0306 0.642755 10.9468 1.03935C11.8631 1.43594 12.662 1.97498 13.3434 2.65646C14.0249 3.33794 14.564 4.13683 14.9606 5.05313C15.3572 5.96927 15.5554 6.95157 15.5554 8.00001V13.9487C15.5554 14.3977 15.3999 14.7778 15.0888 15.0889C14.7777 15.4 14.3976 15.5556 13.9486 15.5556H12.6837C12.2404 15.5556 11.8618 15.3986 11.5479 15.0847C11.2338 14.7706 11.0768 14.3919 11.0768 13.9487V10.8718C11.0768 10.4285 11.2338 10.0499 11.5479 9.73601C11.8618 9.42194 12.2404 9.2649 12.6837 9.2649H14.2221V8.00001C14.2221 6.26668 13.6184 4.79631 12.411 3.5889C11.2036 2.3815 9.73322 1.77779 7.99989 1.77779C6.26656 1.77779 4.79619 2.3815 3.58878 3.5889C2.38137 4.79631 1.77767 6.26668 1.77767 8.00001V9.2649H3.31611C3.75937 9.2649 4.13797 9.42194 4.45189 9.73601C4.76597 10.0499 4.923 10.4285 4.923 10.8718V13.9487C4.923 14.3919 4.76597 14.7706 4.45189 15.0847C4.13797 15.3986 3.75937 15.5556 3.31611 15.5556ZM3.31611 10.5982H1.77767V13.9487C1.77767 14.0171 1.80619 14.0798 1.86322 14.1367C1.92011 14.1937 1.98278 14.2222 2.05122 14.2222H3.31611C3.39582 14.2222 3.46137 14.1966 3.51278 14.1453C3.56404 14.0941 3.58967 14.0285 3.58967 13.9487V10.8718C3.58967 10.7921 3.56404 10.7265 3.51278 10.6751C3.46137 10.6239 3.39582 10.5982 3.31611 10.5982ZM12.4101 10.8718V13.9487C12.4101 14.0285 12.4357 14.0941 12.487 14.1453C12.5384 14.1966 12.604 14.2222 12.6837 14.2222H13.9486C14.017 14.2222 14.0797 14.1937 14.1366 14.1367C14.1936 14.0798 14.2221 14.0171 14.2221 13.9487V10.5982H12.6837C12.604 10.5982 12.5384 10.6239 12.487 10.6751C12.4357 10.7265 12.4101 10.7921 12.4101 10.8718ZM3.31611 10.5982H3.58967H1.77767H3.31611Z" fill="#16406E"/>
</svg>
