<svg width="19" height="13" viewBox="0 0 19 13" fill="none" xmlns="http://www.w3.org/2000/svg">
<path d="M2.39019 2.43153C2.39019 1.8105 2.6053 1.28487 3.03552 0.854645C3.46575 0.424571 3.99138 0.209534 4.61241 0.209534H14.3902C15.0112 0.209534 15.5369 0.424571 15.9671 0.854645C16.3973 1.28487 16.6124 1.8105 16.6124 2.43153V4.03842C17.2335 4.03842 17.7591 4.25353 18.1893 4.68376C18.6195 5.11398 18.8346 5.63961 18.8346 6.26065V10.7051C18.8346 11.3261 18.6195 11.8518 18.1893 12.282C17.7591 12.7122 17.2335 12.9273 16.6124 12.9273H2.39019C1.76915 12.9273 1.24352 12.7122 0.813302 12.282C0.38308 11.8518 0.167969 11.3261 0.167969 10.7051V6.26065C0.167969 5.63961 0.38308 5.11398 0.813302 4.68376C1.24352 4.25353 1.76915 4.03842 2.39019 4.03842V2.43153ZM3.72352 2.43153V4.52731C3.99019 4.7279 4.20501 4.97694 4.36797 5.27442C4.53093 5.57176 4.61241 5.9005 4.61241 6.26065V8.26065H14.3902V6.26065C14.3902 5.9005 14.4717 5.57176 14.6346 5.27442C14.7976 4.97694 15.0124 4.7279 15.2791 4.52731V2.43153C15.2791 2.17968 15.1939 1.96857 15.0235 1.7982C14.8532 1.62783 14.642 1.54264 14.3902 1.54264H4.61241C4.36056 1.54264 4.14945 1.62783 3.97908 1.7982C3.80871 1.96857 3.72352 2.17968 3.72352 2.43153ZM15.7235 9.59398H3.27908V6.26065C3.27908 6.14213 3.25686 6.02731 3.21241 5.9162C3.16797 5.80509 3.10501 5.70879 3.02352 5.62731C2.94204 5.54583 2.84575 5.48287 2.73464 5.43842C2.62352 5.39398 2.50871 5.37176 2.39019 5.37176C2.13834 5.37176 1.92723 5.45694 1.75686 5.62731C1.58649 5.79768 1.5013 6.00879 1.5013 6.26065V10.7051C1.5013 10.9569 1.58649 11.1681 1.75686 11.3384C1.92723 11.5088 2.13834 11.594 2.39019 11.594H16.6124C16.8643 11.594 17.0754 11.5088 17.2457 11.3384C17.4161 11.1681 17.5013 10.9569 17.5013 10.7051V6.26065C17.5013 6.00879 17.4161 5.79768 17.2457 5.62731C17.0754 5.45694 16.8643 5.37176 16.6124 5.37176C16.4939 5.37176 16.3791 5.39398 16.268 5.43842C16.1569 5.48287 16.0606 5.54583 15.9791 5.62731C15.8976 5.70879 15.8346 5.80509 15.7902 5.9162C15.7457 6.02731 15.7235 6.14213 15.7235 6.26065V9.59398Z" fill="#16406E"/>
</svg>
